<svg width="229" height="48" viewBox="0 0 229 48" fill="none" xmlns="http://www.w3.org/2000/svg">
<mask id="mask0_391_30" style="mask-type:luminance" maskUnits="userSpaceOnUse" x="0" y="0" width="229" height="48">
<path d="M70.6765 19.4768C70.6765 17.1285 69.8225 15.4206 68.5416 14.1397C67.0473 12.6453 65.1259 12.0049 62.5641 12.0049H52.9573V32.2858H56.1596V26.7352H63.2046L66.4068 32.2858H70.036L66.1933 26.0948C67.4742 25.4543 68.5416 24.6004 69.3956 23.7465C70.2495 22.4656 70.6765 20.9712 70.6765 19.4768ZM20.9348 19.0498C21.7888 17.5554 22.2157 15.8476 22.2157 14.1397C22.2157 11.5779 21.3618 9.44307 19.6539 7.94869C17.9461 6.24082 15.8112 5.60037 13.036 5.60037H8.33932H3.21571H0.44043V6.02734H0.867397C1.72133 6.02734 2.57526 6.24082 3.00223 6.88127C3.21571 6.88127 3.21571 7.09476 3.21571 7.09476C3.64268 7.73521 3.85616 8.37566 4.06965 9.01611V35.0611C3.85616 35.915 3.64268 36.5555 3.00223 37.1959C2.36178 37.6229 1.72133 38.0499 0.867397 38.0499H0.44043V38.4768H10.0472H10.6876V38.0499H10.0472C9.8337 38.0499 9.8337 38.0499 9.62022 38.0499C8.97977 37.8364 8.33932 37.6229 7.91235 37.1959C7.2719 36.5555 7.05842 35.915 7.05842 35.0611V9.44307V7.09476H9.8337H12.8225C14.7438 7.09476 16.2382 7.73521 17.0921 9.22959C18.1596 10.5105 18.8 12.4318 18.8 14.5667C18.8 15.2071 18.5865 15.8476 18.5865 16.488C18.373 17.7689 17.7326 19.0498 16.8787 19.9038C16.4517 20.1172 16.2382 20.3307 16.0247 20.5442C15.3843 20.9712 14.9573 21.1847 14.1034 21.3981C13.4629 21.6116 12.8225 21.8251 12.182 21.8251C11.5416 21.8251 10.4741 21.8251 8.5528 21.8251V22.4656C9.19325 22.4656 10.0472 23.106 11.1146 24.3869L17.7326 31.6453C21.1483 35.488 23.4966 38.0499 24.5641 39.3308C25.845 40.6117 27.1259 41.8926 28.6202 43.1735C29.2607 43.8139 30.1146 44.4544 30.9686 44.8813C31.609 45.3083 32.4629 45.7353 33.3169 46.1622C34.3843 46.3757 35.0247 46.5892 35.8787 46.8027C36.7326 47.0162 37.5865 47.0162 38.654 47.0162C39.7214 47.0162 40.7888 46.8027 42.0697 46.3757V45.9487C41.6427 46.1622 41.4292 46.1622 41.0023 46.1622C39.0809 46.1622 37.3731 45.5218 35.4517 44.6678C34.5978 44.0274 33.5304 43.3869 32.2495 42.3195C31.182 41.4656 29.9011 40.1847 28.1933 38.6903C26.6989 36.9824 23.2832 33.3532 17.9461 27.3757C16.4517 25.8813 15.3843 24.6004 14.3169 23.3195C16.0247 23.3195 17.3056 22.8925 18.5865 21.8251C19.0135 21.6116 19.4405 21.1847 19.8674 20.5442C20.2944 20.1172 20.7214 19.6903 20.9348 19.0498ZM21.5753 19.6903C21.3618 20.3307 20.9348 20.7577 20.5079 21.1847C20.2944 21.6116 19.6539 22.0386 19.227 22.4656L35.0247 39.3308H35.4517V38.2633C35.0247 36.342 35.0247 34.4206 35.0247 32.4993V4.74644C35.0247 3.89251 35.4517 3.03857 36.0922 2.39812C36.7326 1.75767 37.3731 1.54419 38.227 1.54419H39.2944V0.903738H28.1933V1.54419H29.2607C30.1146 1.54419 30.9686 1.75767 31.609 2.39812C32.2495 3.03857 32.4629 3.89251 32.4629 4.74644V31.4319L21.5753 19.6903ZM3.21571 4.74644H7.48538L3.21571 0.0498047H2.78875V0.903738C3.00223 2.18464 3.21571 3.25206 3.21571 4.74644ZM17.7326 15.6341L10.6876 7.94869H7.91235V10.297L16.2382 19.2633C17.0921 18.1959 17.7326 16.915 17.7326 15.6341ZM56.1596 14.7802H62.5641C64.272 14.7802 65.5529 15.4206 66.4068 16.488C67.0473 17.1285 67.4742 18.1959 67.4742 19.4768C67.4742 20.5442 67.0473 21.6116 66.4068 22.4656C65.5529 23.3195 64.4855 23.7465 62.7776 23.7465H56.1596V14.7802ZM73.4518 32.2858H89.6765V29.5105H76.654V23.106H87.7551V20.1172H76.654V14.9936H89.036V12.0049H73.4518V32.2858ZM103.766 32.2858V27.5892L112.519 12.0049H108.89L102.272 24.1734H102.059L95.4405 12.0049H91.8113L100.564 27.5892V32.2858H103.766ZM141.126 12.0049V27.5892L128.317 12.0049H125.115V32.2858H128.317V16.915L141.126 32.2858H144.115V12.0049H141.126ZM147.531 32.2858H163.755V29.5105H150.733V23.106H161.834V20.1172H150.733V14.9936H163.328V12.0049H147.531V32.2858ZM184.25 20.5442H175.71V23.3195L181.047 23.533V28.4431C179.766 29.297 178.059 29.9375 175.924 29.9375C173.789 29.9375 172.081 29.0835 170.587 27.8026C169.306 26.3083 168.452 24.3869 168.452 22.0386C168.452 19.9038 169.306 18.1959 170.587 16.7015C172.081 15.4206 174.002 14.5667 176.137 14.5667C178.699 14.5667 180.407 15.2071 182.115 16.915L184.036 14.7802C181.901 12.6453 179.553 11.5779 176.137 11.5779C172.935 11.5779 170.373 12.6453 168.238 14.5667C166.317 16.488 165.25 19.2633 165.25 22.0386C165.25 25.0274 166.317 27.5892 168.025 29.5105C169.946 31.4319 172.722 32.7128 175.924 32.7128C178.272 32.7128 180.193 32.0723 181.688 31.0049L182.328 32.4993L184.25 32.2858V20.5442ZM205.385 19.4768C205.385 17.1285 204.531 15.4206 203.25 14.1397C201.755 12.6453 199.834 12.0049 197.272 12.0049H187.665V32.2858H190.868V26.7352H197.699L201.115 32.2858H204.744L200.901 26.0948C202.182 25.4543 203.25 24.6004 203.89 23.7465C204.958 22.4656 205.385 20.9712 205.385 19.4768ZM190.868 14.7802H197.272C198.98 14.7802 200.261 15.4206 201.115 16.488C201.755 17.1285 202.182 18.1959 202.182 19.4768C202.182 20.5442 201.755 21.6116 200.901 22.4656C200.261 23.3195 198.98 23.7465 197.486 23.7465H190.868V14.7802ZM207.306 22.2521C207.306 25.2408 208.587 27.8026 210.508 29.724C212.643 31.6453 215.205 32.7128 218.194 32.7128C220.969 32.7128 223.531 31.6453 225.665 29.724C227.587 27.8026 228.868 25.2408 228.868 22.2521C228.868 19.4768 228.014 17.1285 226.306 15.2071C224.385 13.0723 221.396 11.5779 218.194 11.5779C215.205 11.5779 212.429 12.6453 210.508 14.7802C208.587 16.7015 207.306 19.2633 207.306 22.2521ZM210.508 22.2521C210.508 20.1172 211.149 18.1959 212.643 16.7015C213.924 15.4206 215.845 14.3532 218.194 14.3532C220.328 14.3532 222.463 15.2071 223.744 16.915C225.025 18.1959 225.665 20.1172 225.665 22.2521C225.665 24.3869 225.025 26.3083 223.531 27.5892C222.25 29.0835 220.328 29.9375 218.194 29.9375C216.059 29.9375 214.137 29.0835 212.856 27.8026C211.362 26.3083 210.508 24.3869 210.508 22.2521Z" fill="white"/>
</mask>
<g mask="url(#mask0_391_30)">
<path d="M108.677 146.713L233.351 22.0386L108.677 146.713Z" fill="#E0BE69"/>
<path d="M108.676 146.926L108.463 146.713L233.137 21.8252L233.564 22.0387L108.676 146.926Z" fill="#E1BF6A"/>
<path d="M108.676 146.713L108.25 146.5L233.137 21.8252L233.351 22.0387L108.676 146.713Z" fill="#E2C16C"/>
<path d="M108.463 146.499L108.25 146.286L232.924 21.6113L233.137 21.8248L108.463 146.499Z" fill="#E3C26D"/>
<path d="M108.25 146.286L108.036 146.073L232.71 21.3984L232.924 21.6119L108.25 146.286Z" fill="#E3C36F"/>
<path d="M108.036 146.286L107.822 146.072L232.71 21.1846L232.924 21.3981L108.036 146.286Z" fill="#E4C570"/>
<path d="M108.036 146.072L107.822 145.859L232.497 21.1846L232.71 21.3981L108.036 146.072Z" fill="#E5C671"/>
<path d="M107.823 145.859L107.609 145.646L232.284 20.9712L232.497 21.1847L107.823 145.859Z" fill="#E6C874"/>
<path d="M107.609 145.859L107.396 145.432L232.07 20.7578L232.283 20.9713L107.609 145.859Z" fill="#E7CA75"/>
<path d="M107.396 145.645L107.182 145.432L232.07 20.5439L232.283 20.9709L107.396 145.645Z" fill="#E7CB76"/>
<path d="M107.396 145.432L107.182 145.218L231.856 20.5439L232.07 20.7574L107.396 145.432Z" fill="#E9CD79"/>
<path d="M107.182 145.218L106.969 145.005L231.643 20.3306L231.857 20.544L107.182 145.218Z" fill="#EACE7A"/>
<path d="M106.969 145.218L106.755 145.005L231.43 20.1172L231.857 20.3307L106.969 145.218Z" fill="#EAD07B"/>
<path d="M106.968 145.005L106.542 144.791L231.429 20.1172L231.643 20.3307L106.968 145.005Z" fill="#EBD17D"/>
<path d="M106.755 144.792L106.542 144.578L231.216 19.9038L231.429 20.1173L106.755 144.792Z" fill="#ECD37F"/>
<path d="M106.542 144.578L106.328 144.364L231.002 19.6899L231.216 19.9034L106.542 144.578Z" fill="#EDD580"/>
<path d="M106.328 144.578L106.115 144.365L230.789 19.4771L231.216 19.6905L106.328 144.578Z" fill="#EED683"/>
<path d="M106.328 144.365L105.901 144.151L230.789 19.4771L231.002 19.6905L106.328 144.365Z" fill="#EFD884"/>
<path d="M106.114 144.151L105.901 143.937L230.575 19.2632L230.789 19.4767L106.114 144.151Z" fill="#F0D985"/>
<path d="M105.901 143.938L105.688 143.724L230.362 19.0498L230.576 19.2633L105.901 143.938Z" fill="#F0DB88"/>
<path d="M105.688 143.938L105.474 143.724L230.362 18.8364L230.575 19.0499L105.688 143.938Z" fill="#F1DD89"/>
<path d="M105.688 143.724L105.474 143.511L230.148 18.8364L230.362 19.0499L105.688 143.724Z" fill="#F2DE8A"/>
<path d="M105.474 143.51L105.261 143.297L229.935 18.6226L230.149 18.836L105.474 143.51Z" fill="#F3DF8D"/>
<path d="M105.261 143.511L105.047 143.084L229.722 18.4097L229.935 18.6232L105.261 143.511Z" fill="#F4E18E"/>
<path d="M105.047 143.297L104.833 143.084L229.721 18.1958L229.935 18.6228L105.047 143.297Z" fill="#F5E390"/>
<path d="M105.047 143.084L104.833 142.87L229.508 18.1958L229.721 18.4093L105.047 143.084Z" fill="#F5E491"/>
<path d="M104.834 142.87L104.621 142.657L229.295 17.9824L229.508 18.1959L104.834 142.87Z" fill="#F7E693"/>
<path d="M104.62 142.87L104.407 142.657L229.081 17.769L229.508 17.9825L104.62 142.87Z" fill="#F7E895"/>
<path d="M104.62 142.657L104.193 142.443L229.081 17.769L229.295 17.9825L104.62 142.657Z" fill="#F8E996"/>
<path d="M104.407 142.443L104.193 142.23L228.868 17.5557L229.081 17.7691L104.407 142.443Z" fill="#F7E896"/>
<path d="M104.193 142.23L103.98 142.016L228.654 17.3418L228.868 17.5553L104.193 142.23Z" fill="#F6E795"/>
<path d="M103.98 142.23L103.767 142.016L228.441 17.1284L228.868 17.3419L103.98 142.23Z" fill="#F5E592"/>
<path d="M103.98 142.016L103.553 141.803L228.441 17.1284L228.654 17.3419L103.98 142.016Z" fill="#F5E490"/>
<path d="M103.766 141.803L103.553 141.589L228.227 16.915L228.441 17.1285L103.766 141.803Z" fill="#F2E18E"/>
<path d="M103.553 141.589L103.339 141.375L228.014 16.7012L228.227 16.9147L103.553 141.589Z" fill="#F2E08C"/>
<path d="M103.339 141.59L103.126 141.376L228.014 16.4883L228.227 16.7018L103.339 141.59Z" fill="#F0DE8A"/>
<path d="M103.339 141.376L103.126 141.163L227.8 16.4883L228.014 16.7018L103.339 141.376Z" fill="#EFDD88"/>
<path d="M103.126 141.162L102.912 140.949L227.586 16.2744L227.8 16.4879L103.126 141.162Z" fill="#EDDA85"/>
<path d="M102.913 141.162L102.699 140.735L227.374 16.061L227.587 16.2745L102.913 141.162Z" fill="#ECD884"/>
<path d="M102.699 140.949L102.485 140.735L227.373 15.8477L227.587 16.2746L102.699 140.949Z" fill="#ECD782"/>
<path d="M102.699 140.735L102.485 140.522L227.16 15.8477L227.373 16.0611L102.699 140.735Z" fill="#EAD580"/>
<path d="M102.485 140.522L102.272 140.308L226.946 15.6338L227.16 15.8473L102.485 140.522Z" fill="#E9D47E"/>
<path d="M102.272 140.522L102.059 140.095L226.733 15.4209L226.946 15.6344L102.272 140.522Z" fill="#E7D17B"/>
<path d="M102.272 140.309L101.845 140.095L226.733 15.4209L226.946 15.6344L102.272 140.309Z" fill="#E6D07A"/>
<path d="M102.058 140.095L101.845 139.881L226.519 15.207L226.733 15.4205L102.058 140.095Z" fill="#E6CF78"/>
<path d="M101.845 139.881L101.632 139.668L226.306 14.9937L226.52 15.2071L101.845 139.881Z" fill="#E4CC77"/>
<path d="M101.631 139.882L101.418 139.668L226.092 14.7803L226.519 14.9938L101.631 139.882Z" fill="#E2CB74"/>
<path d="M101.632 139.668L101.205 139.455L226.092 14.7803L226.306 14.9938L101.632 139.668Z" fill="#E1C973"/>
<path d="M101.418 139.455L101.205 139.241L225.879 14.5669L226.092 14.7804L101.418 139.455Z" fill="#E0C871"/>
<path d="M101.205 139.241L100.991 139.027L225.666 14.353L225.879 14.5665L101.205 139.241Z" fill="#DFC66E"/>
<path d="M100.991 139.241L100.778 139.027L225.666 14.1396L225.879 14.3531L100.991 139.241Z" fill="#DDC46D"/>
<path d="M100.991 139.027L100.778 138.814L225.452 14.1396L225.666 14.3531L100.991 139.027Z" fill="#DCC36B"/>
<path d="M100.777 138.814L100.564 138.601L225.238 13.9263L225.452 14.1398L100.777 138.814Z" fill="#DBC16A"/>
<path d="M100.564 138.814L100.351 138.387L225.025 13.7124L225.238 13.9259L100.564 138.814Z" fill="#DABF67"/>
<path d="M100.351 138.601L100.137 138.387L225.025 13.4995L225.238 13.9265L100.351 138.601Z" fill="#D9BE65"/>
<path d="M100.351 138.387L100.137 138.174L224.812 13.4995L225.025 13.713L100.351 138.387Z" fill="#D7BC64"/>
<path d="M100.137 138.173L99.9233 137.96L224.598 13.2856L224.811 13.4991L100.137 138.173Z" fill="#D6BB62"/>
<path d="M99.9239 138.174L99.7104 137.747L224.385 13.0723L224.598 13.2857L99.9239 138.174Z" fill="#D5B961"/>
<path d="M99.9235 137.96L99.4966 137.747L224.384 12.8589L224.598 13.2859L99.9235 137.96Z" fill="#D4B75F"/>
<path d="M99.7101 137.747L99.4966 137.533L224.171 12.8589L224.384 13.0724L99.7101 137.747Z" fill="#D2B55D"/>
<path d="M99.4967 137.533L99.2832 137.32L223.958 12.6455L224.171 12.859L99.4967 137.533Z" fill="#D1B45B"/>
<path d="M99.2833 137.533L99.0698 137.319L223.744 12.4316L224.171 12.6451L99.2833 137.533Z" fill="#D1B259"/>
<path d="M99.2834 137.319L98.8564 137.106L223.744 12.4316L223.958 12.6451L99.2834 137.319Z" fill="#CFB158"/>
<path d="M99.0699 137.106L98.8564 136.893L223.531 12.2183L223.744 12.4317L99.0699 137.106Z" fill="#CEAF56"/>
<path d="M98.8561 136.893L98.6426 136.679L223.317 12.0049L223.53 12.2184L98.8561 136.893Z" fill="#CCAE55"/>
<path d="M98.6427 136.893L98.4292 136.679L223.317 11.7915L223.53 12.005L98.6427 136.893Z" fill="#CCAC53"/>
<path d="M98.6427 136.679L98.4292 136.466L223.104 11.7915L223.317 12.005L98.6427 136.679Z" fill="#CBAB51"/>
<path d="M98.4293 136.466L98.2158 136.252L222.89 11.5781L223.104 11.7916L98.4293 136.466Z" fill="#C9A950"/>
<path d="M98.2159 136.466L98.0024 136.039L222.677 11.3643L222.89 11.5777L98.2159 136.466Z" fill="#C8A84E"/>
<path d="M98.0025 136.252L97.7891 136.039L222.677 11.1509L222.89 11.5778L98.0025 136.252Z" fill="#C6A64D"/>
<path d="M98.0025 136.039L97.7891 135.825L222.463 11.1509L222.677 11.3644L98.0025 136.039Z" fill="#C6A54B"/>
<path d="M97.7887 135.825L97.5752 135.612L222.25 10.9375L222.463 11.151L97.7887 135.825Z" fill="#C5A449"/>
<path d="M97.5753 135.825L97.3618 135.398L222.036 10.7236L222.25 10.9371L97.5753 135.825Z" fill="#C3A248"/>
<path d="M97.3619 135.612L97.1484 135.399L222.036 10.5107L222.25 10.9377L97.3619 135.612Z" fill="#C2A046"/>
<path d="M97.3619 135.399L97.1484 135.185L221.823 10.5107L222.036 10.7242L97.3619 135.399Z" fill="#C09F45"/>
<path d="M97.1481 135.185L96.9346 134.971L221.609 10.2969L221.822 10.5104L97.1481 135.185Z" fill="#C09D43"/>
<path d="M96.9352 135.185L96.7217 134.971L221.396 10.0835L221.823 10.297L96.9352 135.185Z" fill="#BE9C42"/>
<path d="M96.9348 134.971L96.5078 134.758L221.396 10.0835L221.609 10.297L96.9348 134.971Z" fill="#BD9A40"/>
<path d="M96.7213 134.758L96.5078 134.544L221.182 9.87012L221.396 10.0836L96.7213 134.758Z" fill="#BC993F"/>
<path d="M96.5079 134.545L96.2944 134.331L220.969 9.65674L221.182 9.87022L96.5079 134.545Z" fill="#BB973E"/>
<path d="M96.2945 134.544L96.0811 134.331L220.969 9.44287L221.182 9.65635L96.2945 134.544Z" fill="#B9963C"/>
<path d="M96.2945 134.331L96.0811 134.117L220.755 9.44287L220.969 9.65635L96.2945 134.331Z" fill="#B8943B"/>
<path d="M96.0812 134.117L95.8677 133.904L220.542 9.22949L220.755 9.44298L96.0812 134.117Z" fill="#B79339"/>
<path d="M95.8673 134.117L95.6538 133.69L220.328 9.01611L220.542 9.2296L95.8673 134.117Z" fill="#B8943B"/>
<path d="M95.6539 133.904L95.4404 133.691L220.328 8.80273L220.542 9.2297L95.6539 133.904Z" fill="#B9963C"/>
<path d="M95.6539 133.691L95.4404 133.477L220.115 8.80273L220.328 9.01622L95.6539 133.691Z" fill="#BB973E"/>
<path d="M95.4405 133.477L95.2271 133.264L219.901 8.58936L220.115 8.80284L95.4405 133.477Z" fill="#BC993F"/>
<path d="M95.2267 133.477L95.0132 133.05L219.687 8.37549L219.901 8.58897L95.2267 133.477Z" fill="#BD9A40"/>
<path d="M95.0138 133.263L94.8003 133.05L219.688 8.16211L219.902 8.58908L95.0138 133.263Z" fill="#BE9C42"/>
<path d="M95.0138 133.05L94.8003 132.836L219.475 8.16211L219.688 8.37559L95.0138 133.05Z" fill="#C09D43"/>
<path d="M94.7999 132.837L94.5864 132.623L219.261 7.94873L219.474 8.16221L94.7999 132.837Z" fill="#C09F45"/>
<path d="M94.587 132.836L94.3735 132.623L219.048 7.73486L219.475 7.94835L94.587 132.836Z" fill="#C2A046"/>
<path d="M94.5866 132.623L94.1597 132.409L219.047 7.73486L219.261 7.94835L94.5866 132.623Z" fill="#C3A248"/>
<path d="M94.3732 132.41L94.1597 132.196L218.834 7.52197L219.047 7.73546L94.3732 132.41Z" fill="#C5A449"/>
<path d="M94.1598 132.196L93.9463 131.982L218.621 7.30811L218.834 7.52159L94.1598 132.196Z" fill="#C6A54B"/>
<path d="M93.9464 132.196L93.7329 131.983L218.621 7.09473L218.834 7.30821L93.9464 132.196Z" fill="#C6A64D"/>
<path d="M93.9464 131.983L93.7329 131.769L218.407 7.09473L218.621 7.30821L93.9464 131.983Z" fill="#C8A84E"/>
<path d="M93.7325 131.769L93.519 131.556L218.193 6.88135L218.407 7.09483L93.7325 131.769Z" fill="#C9A950"/>
<path d="M93.5191 131.556L93.3057 131.342L217.98 6.66797L218.193 6.88145L93.5191 131.556Z" fill="#CBAB51"/>
<path d="M93.3058 131.555L93.0923 131.342L217.98 6.4541L218.194 6.88107L93.3058 131.555Z" fill="#CCAC53"/>
<path d="M93.3058 131.342L93.0923 131.128L217.767 6.4541L217.98 6.66758L93.3058 131.342Z" fill="#CCAE55"/>
<path d="M93.0924 131.129L92.8789 130.915L217.553 6.24072L217.767 6.45421L93.0924 131.129Z" fill="#CEAF56"/>
<path d="M92.8785 131.129L92.665 130.702L217.339 6.02734L217.553 6.24083L92.8785 131.129Z" fill="#CFB158"/>
<path d="M92.6651 130.915L92.4517 130.701L217.339 5.81348L217.553 6.24044L92.6651 130.915Z" fill="#D1B259"/>
<path d="M92.6651 130.701L92.4517 130.488L217.126 5.81348L217.339 6.02696L92.6651 130.701Z" fill="#D1B45B"/>
<path d="M92.4518 130.488L92.2383 130.275L216.913 5.60059L217.126 5.81407L92.4518 130.488Z" fill="#D2B55D"/>
<path d="M92.2379 130.488L92.0244 130.275L216.699 5.38672L217.126 5.6002L92.2379 130.488Z" fill="#D4B75F"/>
<path d="M92.2385 130.275L91.8115 130.061L216.699 5.38672L216.913 5.6002L92.2385 130.275Z" fill="#D5B961"/>
<path d="M92.025 130.062L91.8115 129.848L216.486 5.17383L216.699 5.38731L92.025 130.062Z" fill="#D6BB62"/>
<path d="M91.8111 129.848L91.5977 129.634L216.272 4.95996L216.485 5.17344L91.8111 129.848Z" fill="#D7BC64"/>
<path d="M91.5978 129.848L91.3843 129.634L216.059 4.74658L216.486 4.96007L91.5978 129.848Z" fill="#D9BE65"/>
<path d="M91.5978 129.634L91.3843 129.421L216.059 4.74658L216.272 4.96007L91.5978 129.634Z" fill="#DABF67"/>
<path d="M91.3844 129.421L91.1709 129.208L215.845 4.5332L216.059 4.74669L91.3844 129.421Z" fill="#DBC16A"/>
<path d="M91.171 129.207L90.9575 128.994L215.632 4.31934L215.845 4.53282L91.171 129.207Z" fill="#DCC36B"/>
<path d="M90.9576 129.207L90.7441 128.994L215.632 4.10596L215.845 4.53292L90.9576 129.207Z" fill="#DDC46D"/>
<path d="M90.9576 128.994L90.7441 128.78L215.418 4.10596L215.632 4.31944L90.9576 128.994Z" fill="#DFC66E"/>
<path d="M90.7438 128.78L90.5303 128.567L215.205 3.89258L215.418 4.10606L90.7438 128.78Z" fill="#E0C871"/>
<path d="M90.5304 128.78L90.3169 128.354L214.991 3.6792L215.205 3.89268L90.5304 128.78Z" fill="#E1C973"/>
<path d="M90.317 128.567L90.1035 128.353L214.991 3.46533L215.205 3.8923L90.317 128.567Z" fill="#E2CB74"/>
<path d="M90.317 128.353L90.1035 128.14L214.778 3.46533L214.991 3.67882L90.317 128.353Z" fill="#E4CC77"/>
<path d="M90.1036 128.14L89.8901 127.926L214.564 3.25195L214.778 3.46544L90.1036 128.14Z" fill="#E6CF78"/>
<path d="M89.8898 128.14L89.6763 127.926L214.351 3.03857L214.778 3.25206L89.8898 128.14Z" fill="#E6D07A"/>
<path d="M89.8899 127.926L89.4629 127.713L214.351 3.03857L214.564 3.25206L89.8899 127.926Z" fill="#E7D17B"/>
<path d="M89.6764 127.713L89.4629 127.499L214.137 2.82471L214.351 3.03819L89.6764 127.713Z" fill="#E9D47E"/>
<path d="M89.463 127.5L89.2495 127.286L213.924 2.61182L214.137 2.8253L89.463 127.5Z" fill="#EAD580"/>
<path d="M89.2491 127.499L89.0356 127.286L213.71 2.39795L214.137 2.61143L89.2491 127.499Z" fill="#ECD782"/>
<path d="M89.2497 127.286L88.8228 127.072L213.711 2.39795L213.924 2.61143L89.2497 127.286Z" fill="#ECD884"/>
<path d="M89.0362 127.072L88.8228 126.859L213.497 2.18457L213.711 2.39805L89.0362 127.072Z" fill="#EDDA85"/>
<path d="M88.8224 126.859L88.6089 126.646L213.283 1.97119L213.497 2.18467L88.8224 126.859Z" fill="#EFDD88"/>
<path d="M88.609 126.859L88.3955 126.646L213.283 1.75781L213.497 1.9713L88.609 126.859Z" fill="#F0DE8A"/>
<path d="M88.609 126.646L88.3955 126.432L213.07 1.75781L213.283 1.9713L88.609 126.646Z" fill="#F2E08C"/>
<path d="M88.3956 126.432L88.1821 126.219L212.856 1.54443L213.07 1.75792L88.3956 126.432Z" fill="#F2E18E"/>
<path d="M88.1822 126.432L87.9688 126.005L212.643 1.33057L212.857 1.54405L88.1822 126.432Z" fill="#F5E490"/>
<path d="M87.9689 126.218L87.7554 126.005L212.643 1.11719L212.857 1.54415L87.9689 126.218Z" fill="#F5E592"/>
<path d="M87.9689 126.005L87.7554 125.791L212.43 1.11719L212.643 1.33067L87.9689 126.005Z" fill="#F6E795"/>
<path d="M87.755 125.792L87.5415 125.578L212.216 0.903809L212.429 1.11729L87.755 125.792Z" fill="#F7E896"/>
<path d="M87.5416 125.792L87.3281 125.578L212.002 0.69043L212.429 0.903913L87.5416 125.792Z" fill="#F8E996"/>
<path d="M87.5417 125.578L87.1147 125.365L212.003 0.69043L212.216 0.903913L87.5417 125.578Z" fill="#F7E895"/>
<path d="M87.3282 125.364L87.1147 125.151L211.789 0.476562L212.003 0.690046L87.3282 125.364Z" fill="#F7E693"/>
<path d="M87.1149 125.151L86.9014 124.938L211.576 0.263672L211.789 0.477155L87.1149 125.151Z" fill="#F5E491"/>
<path d="M86.901 125.151L86.6875 124.938L211.362 0.0498047L211.789 0.263288L86.901 125.151Z" fill="#F5E390"/>
<path d="M86.9016 124.938L86.4746 124.724L211.362 0.0498047L211.576 0.263288L86.9016 124.938Z" fill="#F4E18E"/>
<path d="M86.6881 124.724L86.4746 124.51L211.149 -0.164062L211.362 0.0494209L86.6881 124.724Z" fill="#F3DF8D"/>
<path d="M86.4742 124.511L86.2607 124.297L210.935 -0.376953L211.149 -0.16347L86.4742 124.511Z" fill="#F2DE8A"/>
<path d="M86.2608 124.51L86.0474 124.297L210.935 -0.59082L211.149 -0.377337L86.2608 124.51Z" fill="#F1DD89"/>
<path d="M86.2608 124.297L86.0474 124.083L210.722 -0.59082L210.935 -0.377337L86.2608 124.297Z" fill="#F0DB88"/>
<path d="M86.0475 124.084L85.834 123.87L210.508 -0.804199L210.722 -0.590716L86.0475 124.084Z" fill="#F0D985"/>
<path d="M85.8336 124.084L85.6201 123.657L210.294 -1.01758L210.508 -0.804095L85.8336 124.084Z" fill="#EFD884"/>
<path d="M85.6202 123.87L85.4067 123.657L210.295 -1.23096L210.508 -0.80399L85.6202 123.87Z" fill="#EED683"/>
<path d="M85.6202 123.657L85.4067 123.443L210.081 -1.23096L210.295 -1.01747L85.6202 123.657Z" fill="#EDD580"/>
<path d="M85.4068 123.443L85.1934 123.229L209.868 -1.44482L210.081 -1.23134L85.4068 123.443Z" fill="#ECD37F"/>
<path d="M85.1935 123.443L84.98 123.23L209.654 -1.6582L210.081 -1.44472L85.1935 123.443Z" fill="#EBD17D"/>
<path d="M85.1931 123.23L84.7661 123.016L209.654 -1.6582L209.867 -1.44472L85.1931 123.23Z" fill="#EAD07B"/>
<path d="M84.9796 123.016L84.7661 122.803L209.44 -1.87158L209.654 -1.6581L84.9796 123.016Z" fill="#EACE7A"/>
<path d="M84.7662 122.803L84.5527 122.589L209.227 -2.08496L209.441 -1.87148L84.7662 122.803Z" fill="#E9CD79"/>
<path d="M84.5528 122.803L84.3394 122.589L209.014 -2.29834L209.441 -2.08486L84.5528 122.803Z" fill="#E7CB76"/>
<path d="M84.5529 122.589L84.126 122.376L209.014 -2.29834L209.227 -2.08486L84.5529 122.589Z" fill="#E7CA75"/>
<path d="M84.3395 122.376L84.126 122.162L208.8 -2.51221L209.014 -2.29872L84.3395 122.376Z" fill="#E6C874"/>
<path d="M84.1261 122.163L83.9126 121.949L208.587 -2.7251L208.8 -2.51161L84.1261 122.163Z" fill="#E5C671"/>
<path d="M83.9122 122.162L83.6987 121.949L208.587 -2.93896L208.8 -2.72548L83.9122 122.162Z" fill="#E4C570"/>
<path d="M83.9122 121.949L83.6987 121.735L208.373 -2.93896L208.587 -2.72548L83.9122 121.949Z" fill="#E3C36F"/>
<path d="M83.6993 121.735L83.4858 121.522L208.16 -3.15234L208.374 -2.93886L83.6993 121.735Z" fill="#E3C26D"/>
<path d="M83.4855 121.736L83.272 121.309L207.946 -3.36572L208.16 -3.15224L83.4855 121.736Z" fill="#E2C16C"/>
<path d="M83.2721 121.522L83.0586 121.308L207.946 -3.57959L208.16 -3.15262L83.2721 121.522Z" fill="#E1BF6A"/>
<path d="M83.2721 121.308L83.0586 121.095L207.733 -3.57959L207.946 -3.36611L83.2721 121.308Z" fill="#E0BE69"/>
<path d="M83.0587 121.095L82.8452 120.881L207.52 -3.79297L207.733 -3.57949L83.0587 121.095Z" fill="#DFBC67"/>
<path d="M82.8448 121.095L82.6313 120.668L207.306 -4.00635L207.519 -3.79286L82.8448 121.095Z" fill="#DEBB66"/>
<path d="M82.8449 120.881L82.418 120.668L207.306 -4.00635L207.519 -3.79286L82.8449 120.881Z" fill="#DDBA64"/>
<path d="M82.6315 120.668L82.418 120.455L207.092 -4.21973L207.306 -4.00624L82.6315 120.668Z" fill="#DCB862"/>
<path d="M82.4181 120.454L82.2046 120.241L206.879 -4.43359L207.092 -4.22011L82.4181 120.454Z" fill="#DBB661"/>
<path d="M82.2047 120.454L81.9912 120.241L206.666 -4.64697L207.092 -4.43349L82.2047 120.454Z" fill="#DBB560"/>
<path d="M82.2043 120.241L81.7773 120.027L206.665 -4.64697L206.879 -4.43349L82.2043 120.241Z" fill="#DAB45E"/>
<path d="M81.9908 120.027L81.7773 119.814L206.452 -4.86035L206.665 -4.64687L81.9908 120.027Z" fill="#D9B25D"/>
<path d="M81.7779 119.814L81.5645 119.6L206.239 -5.07422L206.452 -4.86074L81.7779 119.814Z" fill="#D8B15C"/>
<path d="M81.5641 119.814L81.3506 119.601L206.238 -5.28711L206.452 -5.07363L81.5641 119.814Z" fill="#D7B05A"/>
<path d="M81.5641 119.601L81.3506 119.387L206.025 -5.28711L206.238 -5.07363L81.5641 119.601Z" fill="#D6AE58"/>
<path d="M81.3507 119.387L81.1372 119.173L205.812 -5.50098L206.025 -5.28749L81.3507 119.387Z" fill="#D5AD57"/>
<path d="M81.1373 119.387L80.9238 118.96L205.598 -5.71387L205.812 -5.50038L81.1373 119.387Z" fill="#D4AB55"/>
<path d="M80.9234 119.174L80.71 118.96L205.598 -5.92773L205.811 -5.50077L80.9234 119.174Z" fill="#D4AA54"/>
<path d="M80.9234 118.96L80.71 118.747L205.384 -5.92773L205.598 -5.71425L80.9234 118.96Z" fill="#D3A953"/>
<path d="M80.7106 118.747L80.4971 118.533L205.171 -6.14111L205.385 -5.92763L80.7106 118.747Z" fill="#D2A751"/>
<path d="M80.4967 118.747L80.2832 118.32L204.958 -6.35449L205.171 -6.14101L80.4967 118.747Z" fill="#D1A650"/>
<path d="M80.4968 118.533L80.0698 118.319L204.958 -6.56836L205.171 -6.14139L80.4968 118.533Z" fill="#D0A44F"/>
<path d="M80.2833 118.319L80.0698 118.106L204.744 -6.56836L204.958 -6.35488L80.2833 118.319Z" fill="#CFA34E"/>
<path d="M80.0699 118.106L79.8564 117.893L204.531 -6.78174L204.744 -6.56825L80.0699 118.106Z" fill="#CEA14C"/>
<path d="M79.8561 118.106L79.6426 117.893L204.317 -6.99512L204.744 -6.78163L79.8561 118.106Z" fill="#CDA04B"/>
<path d="M79.8562 117.893L79.4292 117.679L204.317 -6.99512L204.53 -6.78163L79.8562 117.893Z" fill="#CD9E4A"/>
<path d="M79.6427 117.679L79.4292 117.466L204.104 -7.2085L204.317 -6.99501L79.6427 117.679Z" fill="#CC9D48"/>
<path d="M79.4293 117.465L79.2158 117.252L203.89 -7.42236L204.104 -7.20888L79.4293 117.465Z" fill="#CB9C47"/>
<path d="M79.2159 117.466L79.0024 117.253L203.89 -7.63525L204.104 -7.42177L79.2159 117.466Z" fill="#CA9A46"/>
<path d="M79.2159 117.253L79.0024 117.039L203.677 -7.63525L203.89 -7.42177L79.2159 117.253Z" fill="#C99944"/>
<path d="M79.0021 117.039L78.7886 116.825L203.463 -7.84912L203.676 -7.63564L79.0021 117.039Z" fill="#C99843"/>
<path d="M78.7892 117.039L78.5757 116.612L203.25 -8.0625L203.463 -7.84902L78.7892 117.039Z" fill="#C89642"/>
<path d="M78.5753 116.825L78.3618 116.612L203.25 -8.27588L203.463 -7.84891L78.5753 116.825Z" fill="#C79541"/>
<path d="M78.5753 116.612L78.3618 116.398L203.036 -8.27588L203.25 -8.0624L78.5753 116.612Z" fill="#C59340"/>
<path d="M78.3619 116.398L78.1484 116.185L202.823 -8.48975L203.036 -8.27626L78.3619 116.398Z" fill="#C5923F"/>
<path d="M78.1485 116.398L77.9351 115.971L202.609 -8.70312L202.823 -8.48964L78.1485 116.398Z" fill="#C4903D"/>
<path d="M77.9347 116.185L77.7212 115.971L202.609 -8.9165L202.822 -8.48954L77.9347 116.185Z" fill="#C48F3C"/>
<path d="M77.9347 115.971L77.7212 115.758L202.396 -8.9165L202.609 -8.70302L77.9347 115.971Z" fill="#C38E3B"/>
<path d="M77.7213 115.758L77.5078 115.544L202.182 -9.12988L202.396 -8.9164L77.7213 115.758Z" fill="#C18C3A"/>
<path d="M77.5079 115.758L77.2944 115.545L201.969 -9.34326L202.396 -9.12978L77.5079 115.758Z" fill="#C18B39"/>
<path d="M77.508 115.545L77.0811 115.331L201.969 -9.34326L202.182 -9.12978L77.508 115.545Z" fill="#C08938"/>
<path d="M77.2945 115.331L77.0811 115.117L201.755 -9.55713L201.969 -9.34365L77.2945 115.331Z" fill="#BF8837"/>
<path d="M77.0812 115.117L76.8677 114.904L201.542 -9.77051L201.755 -9.55702L77.0812 115.117Z" fill="#BE8735"/>
<path d="M76.8678 115.117L76.6543 114.904L201.542 -9.98389L201.756 -9.7704L76.8678 115.117Z" fill="#BE8535"/>
<path d="M76.8678 114.904L76.6543 114.69L201.329 -9.98389L201.542 -9.7704L76.8678 114.904Z" fill="#BD8434"/>
<path d="M76.6539 114.691L76.4404 114.477L201.115 -10.1973L201.328 -9.98378L76.6539 114.691Z" fill="#BC8232"/>
<path d="M76.4405 114.69L76.2271 114.263L200.901 -10.4111L201.115 -10.1976L76.4405 114.69Z" fill="#BB8132"/>
<path d="M76.2272 114.477L76.0137 114.264L200.901 -10.624L201.115 -10.1971L76.2272 114.477Z" fill="#BC8232"/>
<path d="M76.2272 114.264L76.0137 114.05L200.688 -10.624L200.901 -10.4105L76.2272 114.264Z" fill="#BD8433"/>
<path d="M76.0133 114.05L75.7998 113.836L200.474 -10.8379L200.688 -10.6244L76.0133 114.05Z" fill="#BD8534"/>
<path d="M75.8004 114.05L75.5869 113.623L200.261 -11.0513L200.475 -10.8378L75.8004 114.05Z" fill="#BE8635"/>
<path d="M75.5865 113.837L75.373 113.623L200.261 -11.2646L200.474 -10.8377L75.5865 113.837Z" fill="#BF8736"/>
<path d="M75.5865 113.623L75.373 113.41L200.047 -11.2646L200.261 -11.0512L75.5865 113.623Z" fill="#C08837"/>
<path d="M75.3732 113.409L75.1597 113.196L199.834 -11.4785L200.047 -11.265L75.3732 113.409Z" fill="#C08A38"/>
<path d="M75.1598 113.409L74.9463 113.196L199.621 -11.6919L200.048 -11.4784L75.1598 113.409Z" fill="#C18B39"/>
<path d="M75.1594 113.196L74.7324 112.982L199.62 -11.6919L199.834 -11.4784L75.1594 113.196Z" fill="#C18C3A"/>
<path d="M74.9459 112.983L74.7324 112.769L199.407 -11.9053L199.62 -11.6918L74.9459 112.983Z" fill="#C28D3B"/>
<path d="M74.7325 112.769L74.519 112.556L199.193 -12.1187L199.407 -11.9052L74.7325 112.769Z" fill="#C48F3C"/>
<path d="M74.5191 112.769L74.3057 112.555L199.193 -12.3325L199.407 -12.119L74.5191 112.769Z" fill="#C4903C"/>
<path d="M74.5191 112.555L74.3057 112.342L198.98 -12.3325L199.193 -12.119L74.5191 112.555Z" fill="#C5913E"/>
<path d="M74.3058 112.342L74.0923 112.128L198.767 -12.5459L198.98 -12.3324L74.3058 112.342Z" fill="#C5923F"/>
<path d="M74.0919 112.129L73.8784 111.915L198.553 -12.7593L198.766 -12.5458L74.0919 112.129Z" fill="#C69440"/>
<path d="M73.879 112.129L73.6655 111.915L198.553 -12.9727L198.767 -12.5457L73.879 112.129Z" fill="#C69441"/>
<path d="M73.879 111.915L73.6655 111.702L198.34 -12.9727L198.553 -12.7592L73.879 111.915Z" fill="#C89642"/>
<path d="M73.6651 111.702L73.4517 111.488L198.126 -13.186L198.339 -12.9726L73.6651 111.702Z" fill="#C89743"/>
<path d="M73.4518 111.701L73.2383 111.274L197.913 -13.3999L198.126 -13.1864L73.4518 111.701Z" fill="#C99944"/>
<path d="M73.2384 111.488L73.0249 111.275L197.913 -13.6128L198.126 -13.1858L73.2384 111.488Z" fill="#C99945"/>
<path d="M73.2384 111.275L73.0249 111.062L197.699 -13.6128L197.913 -13.3993L73.2384 111.275Z" fill="#CA9B46"/>
<path d="M73.0245 111.061L72.811 110.848L197.485 -13.8267L197.699 -13.6132L73.0245 111.061Z" fill="#CB9C47"/>
<path d="M72.8116 111.061L72.5981 110.848L197.272 -14.04L197.699 -13.8266L72.8116 111.061Z" fill="#CC9E49"/>
<path d="M72.8112 110.848L72.3843 110.634L197.272 -14.04L197.486 -13.8266L72.8112 110.848Z" fill="#CD9F4A"/>
<path d="M72.5978 110.634L72.3843 110.421L197.059 -14.2534L197.272 -14.0399L72.5978 110.634Z" fill="#CDA04A"/>
<path d="M72.3844 110.421L72.1709 110.207L196.845 -14.4673L197.059 -14.2538L72.3844 110.421Z" fill="#CEA14C"/>
<path d="M72.171 110.421L71.9575 110.207L196.632 -14.6807L197.059 -14.4672L72.171 110.421Z" fill="#CFA24D"/>
<path d="M72.171 110.207L71.9575 109.994L196.632 -14.6807L196.845 -14.4672L72.171 110.207Z" fill="#D0A44E"/>
<path d="M71.9571 109.994L71.7437 109.78L196.418 -14.894L196.631 -14.6806L71.9571 109.994Z" fill="#D0A44F"/>
<path d="M71.7438 109.78L71.5303 109.567L196.205 -15.1074L196.418 -14.8939L71.7438 109.78Z" fill="#D1A650"/>
<path d="M71.5304 109.78L71.3169 109.566L196.205 -15.3213L196.418 -14.8943L71.5304 109.78Z" fill="#D2A751"/>
<path d="M71.5304 109.567L71.3169 109.353L195.991 -15.3213L196.205 -15.1078L71.5304 109.567Z" fill="#D3A953"/>
<path d="M71.317 109.354L71.1035 109.14L195.778 -15.5342L195.991 -15.3207L71.317 109.354Z" fill="#D4AA54"/>
<path d="M71.1031 109.353L70.8896 108.926L195.564 -15.748L195.777 -15.5346L71.1031 109.353Z" fill="#D4AB55"/>
<path d="M70.8902 109.14L70.6768 108.926L195.565 -15.9614L195.778 -15.5345L70.8902 109.14Z" fill="#D5AC56"/>
<path d="M70.8902 108.926L70.6768 108.713L195.351 -15.9614L195.565 -15.7479L70.8902 108.926Z" fill="#D6AD57"/>
<path d="M70.6764 108.713L70.4629 108.5L195.137 -16.1748L195.351 -15.9613L70.6764 108.713Z" fill="#D6AF58"/>
<path d="M70.463 108.713L70.2495 108.499L194.924 -16.3887L195.351 -16.1752L70.463 108.713Z" fill="#D7AF59"/>
<path d="M70.4631 108.499L70.0361 108.286L194.924 -16.3887L195.137 -16.1752L70.4631 108.499Z" fill="#D8B15B"/>
<path d="M70.2496 108.286L70.0361 108.073L194.71 -16.6016L194.924 -16.3881L70.2496 108.286Z" fill="#D9B35C"/>
<path d="M70.0357 108.072L69.8223 107.859L194.497 -16.8154L194.71 -16.6019L70.0357 108.072Z" fill="#DAB45D"/>
<path d="M69.8229 108.072L69.6094 107.859L194.284 -17.0288L194.711 -16.8153L69.8229 108.072Z" fill="#DAB45E"/>
<path d="M69.8225 107.859L69.3955 107.646L194.283 -17.0288L194.497 -16.8153L69.8225 107.859Z" fill="#DBB65F"/>
<path d="M69.609 107.646L69.3955 107.432L194.07 -17.2422L194.283 -17.0287L69.609 107.646Z" fill="#DBB761"/>
<path d="M69.3956 107.432L69.1821 107.218L193.856 -17.4561L194.07 -17.2426L69.3956 107.432Z" fill="#DDB962"/>
<path d="M69.1822 107.432L68.9688 107.218L193.857 -17.6694L194.07 -17.456L69.1822 107.432Z" fill="#DEBA63"/>
<path d="M69.1822 107.218L68.9688 107.005L193.643 -17.6694L193.857 -17.456L69.1822 107.218Z" fill="#DEBB64"/>
<path d="M68.9689 107.005L68.7554 106.791L193.43 -17.8828L193.643 -17.6693L68.9689 107.005Z" fill="#DFBC66"/>
<path d="M68.755 107.005L68.5415 106.578L193.216 -18.0962L193.429 -17.8827L68.755 107.005Z" fill="#DFBE67"/>
<path d="M68.5416 106.791L68.3281 106.578L193.216 -18.3101L193.429 -17.8831L68.5416 106.791Z" fill="#E0BF69"/>
<path d="M68.5416 106.578L68.3281 106.364L193.002 -18.3101L193.216 -18.0966L68.5416 106.578Z" fill="#E1C06A"/>
<path d="M68.3282 106.365L68.1147 106.151L192.789 -18.5229L193.003 -18.3095L68.3282 106.365Z" fill="#E2C16B"/>
<path d="M68.1144 106.364L67.9009 106.151L192.575 -18.7368L193.002 -18.5233L68.1144 106.364Z" fill="#E3C36C"/>
<path d="M68.115 106.151L67.688 105.937L192.576 -18.7368L192.789 -18.5233L68.115 106.151Z" fill="#E3C46E"/>
<path d="M67.9015 105.938L67.688 105.724L192.362 -18.9502L192.576 -18.7367L67.9015 105.938Z" fill="#E4C56F"/>
<path d="M67.6876 105.724L67.4741 105.511L192.148 -19.1636L192.362 -18.9501L67.6876 105.724Z" fill="#E4C671"/>
<path d="M67.4742 105.724L67.2607 105.51L191.935 -19.3774L192.362 -19.164L67.4742 105.724Z" fill="#E5C872"/>
<path d="M67.4743 105.51L67.0474 105.297L191.935 -19.3774L192.149 -19.164L67.4743 105.51Z" fill="#E7C973"/>
<path d="M67.2608 105.297L67.0474 105.084L191.722 -19.5903L191.935 -19.3768L67.2608 105.297Z" fill="#E7CB75"/>
<path d="M67.047 105.084L66.8335 104.87L191.508 -19.8042L191.721 -19.5907L67.047 105.084Z" fill="#E8CB76"/>
<path d="M66.8336 105.084L66.6201 104.87L191.508 -20.0176L191.721 -19.8041L66.8336 105.084Z" fill="#E9CD77"/>
<path d="M66.8336 104.87L66.6201 104.657L191.294 -20.0176L191.508 -19.8041L66.8336 104.87Z" fill="#E9CF78"/>
<path d="M66.6202 104.657L66.4067 104.443L191.081 -20.231L191.295 -20.0175L66.6202 104.657Z" fill="#EAD07A"/>
<path d="M66.4068 104.657L66.1934 104.23L190.868 -20.4443L191.081 -20.2309L66.4068 104.657Z" fill="#EAD17B"/>
<path d="M66.1935 104.443L65.98 104.23L190.868 -20.6582L191.081 -20.2312L66.1935 104.443Z" fill="#ECD37D"/>
<path d="M66.1935 104.23L65.98 104.016L190.654 -20.6582L190.868 -20.4447L66.1935 104.23Z" fill="#ECD47F"/>
<path d="M65.9801 104.016L65.7666 103.803L190.441 -20.8716L190.654 -20.6581L65.9801 104.016Z" fill="#EDD580"/>
<path d="M65.7662 104.016L65.5527 103.589L190.227 -21.085L190.654 -20.8715L65.7662 104.016Z" fill="#EED781"/>
<path d="M65.7663 103.803L65.3394 103.589L190.227 -21.085L190.441 -20.8715L65.7663 103.803Z" fill="#EED782"/>
<path d="M65.5528 103.589L65.3394 103.375L190.014 -21.2988L190.227 -21.0853L65.5528 103.589Z" fill="#EFD984"/>
<path d="M65.3395 103.376L65.126 103.163L189.8 -21.5117L190.014 -21.2982L65.3395 103.376Z" fill="#F0DB85"/>
<path d="M65.1256 103.376L64.9121 103.162L189.586 -21.7256L190.013 -21.5121L65.1256 103.376Z" fill="#F1DC87"/>
<path d="M65.1262 103.162L64.6992 102.949L189.587 -21.7256L189.8 -21.5121L65.1262 103.162Z" fill="#F1DD88"/>
<path d="M64.9127 102.949L64.6992 102.735L189.374 -21.939L189.587 -21.7255L64.9127 102.949Z" fill="#F2DF8A"/>
<path d="M64.6988 102.735L64.4854 102.522L189.16 -22.1523L189.373 -21.9389L64.6988 102.735Z" fill="#F3E08B"/>
<path d="M64.4855 102.735L64.272 102.522L189.16 -22.3662L189.373 -22.1527L64.4855 102.735Z" fill="#F4E28D"/>
<path d="M64.4855 102.522L64.272 102.308L188.946 -22.3662L189.16 -22.1527L64.4855 102.522Z" fill="#F4E28E"/>
<path d="M64.2721 102.308L64.0586 102.095L188.733 -22.5796L188.946 -22.3661L64.2721 102.308Z" fill="#F5E48F"/>
<path d="M64.0582 102.308L63.8447 101.881L188.519 -22.793L188.733 -22.5795L64.0582 102.308Z" fill="#F6E691"/>
<path d="M63.8448 102.095L63.6313 101.881L188.519 -23.0063L188.733 -22.5794L63.8448 102.095Z" fill="#F7E792"/>
<path d="M63.8448 101.881L63.6313 101.668L188.306 -23.0063L188.519 -22.7929L63.8448 101.881Z" fill="#F8E994"/>
<path d="M63.6315 101.668L63.418 101.455L188.092 -23.2197L188.306 -23.0062L63.6315 101.668Z" fill="#F7E893"/>
<path d="M63.4181 101.668L63.2046 101.241L187.879 -23.4331L188.092 -23.2196L63.4181 101.668Z" fill="#F5E590"/>
<path d="M63.4177 101.455L62.9907 101.241L187.879 -23.4331L188.092 -23.2196L63.4177 101.455Z" fill="#F3E28D"/>
<path d="M63.2042 101.241L62.9907 101.027L187.665 -23.647L187.879 -23.4335L63.2042 101.241Z" fill="#F2DF8A"/>
<path d="M62.9913 101.027L62.7778 100.814L187.452 -23.8604L187.666 -23.6469L62.9913 101.027Z" fill="#F0DC87"/>
<path d="M62.7774 101.028L62.564 100.814L187.238 -24.0737L187.665 -23.8602L62.7774 101.028Z" fill="#EED984"/>
<path d="M62.7776 100.814L62.3506 100.601L187.238 -24.0737L187.452 -23.8602L62.7776 100.814Z" fill="#ECD681"/>
<path d="M62.5641 100.6L62.3506 100.387L187.025 -24.2876L187.238 -24.0741L62.5641 100.6Z" fill="#EAD37E"/>
<path d="M62.3507 100.387L62.1372 100.174L186.812 -24.5005L187.025 -24.287L62.3507 100.387Z" fill="#E9D07B"/>
<path d="M62.1368 100.387L61.9233 100.173L186.811 -24.7144L187.025 -24.5009L62.1368 100.387Z" fill="#E7CD78"/>
<path d="M62.1368 100.173L61.9233 99.96L186.598 -24.7144L186.811 -24.5009L62.1368 100.173Z" fill="#E5CA75"/>
<path d="M61.9239 99.9601L61.7104 99.7466L186.385 -24.9277L186.598 -24.7143L61.9239 99.9601Z" fill="#E3C872"/>
<path d="M61.7101 99.9602L61.4966 99.5332L186.171 -25.1411L186.384 -24.9276L61.7101 99.9602Z" fill="#E1C570"/>
<path d="M61.4967 99.7468L61.2832 99.5333L186.171 -25.3545L186.384 -24.9275L61.4967 99.7468Z" fill="#DFC26D"/>
<path d="M61.4967 99.5333L61.2832 99.3198L185.958 -25.3545L186.171 -25.141L61.4967 99.5333Z" fill="#DDBE69"/>
<path d="M61.2833 99.3194L61.0698 99.1059L185.744 -25.5684L185.958 -25.3549L61.2833 99.3194Z" fill="#DBBC67"/>
<path d="M61.0699 99.3195L60.8564 98.8926L185.531 -25.7817L185.744 -25.5683L61.0699 99.3195Z" fill="#D9B964"/>
<path d="M60.8561 99.1061L60.6426 98.8927L185.53 -25.9951L185.744 -25.5682L60.8561 99.1061Z" fill="#D7B662"/>
<path d="M60.8561 98.8927L60.6426 98.6792L185.317 -25.9951L185.53 -25.7816L60.8561 98.8927Z" fill="#D6B45F"/>
<path d="M60.6427 98.6788L60.4292 98.4653L185.104 -26.209L185.317 -25.9955L60.6427 98.6788Z" fill="#D4B15D"/>
<path d="M60.4293 98.6794L60.2158 98.4659L184.89 -26.4219L185.317 -26.2084L60.4293 98.6794Z" fill="#D2AE5A"/>
<path d="M60.4289 98.4659L60.002 98.2524L184.89 -26.4219L185.103 -26.2084L60.4289 98.4659Z" fill="#D0AC58"/>
<path d="M60.2154 98.2521L60.002 98.0386L184.676 -26.6357L184.89 -26.4223L60.2154 98.2521Z" fill="#CFA955"/>
<path d="M60.0025 98.0387L59.7891 97.8252L184.463 -26.8491L184.677 -26.6356L60.0025 98.0387Z" fill="#CDA753"/>
<path d="M59.7887 98.0388L59.5752 97.8253L184.463 -27.0625L184.676 -26.849L59.7887 98.0388Z" fill="#CBA450"/>
<path d="M59.7887 97.8253L59.5752 97.6118L184.25 -27.0625L184.463 -26.849L59.7887 97.8253Z" fill="#C9A14E"/>
<path d="M59.5753 97.6114L59.3618 97.3979L184.036 -27.2764L184.25 -27.0629L59.5753 97.6114Z" fill="#C79F4C"/>
<path d="M59.3619 97.612L59.1484 97.185L183.823 -27.4893L184.036 -27.2758L59.3619 97.612Z" fill="#C59C49"/>
<path d="M59.1481 97.3981L58.9346 97.1847L183.822 -27.7031L184.036 -27.2762L59.1481 97.3981Z" fill="#C49A47"/>
<path d="M59.1481 97.1847L58.9346 96.9712L183.609 -27.7031L183.822 -27.4896L59.1481 97.1847Z" fill="#C19645"/>
<path d="M58.9352 96.9713L58.7217 96.7578L183.396 -27.9165L183.609 -27.703L58.9352 96.9713Z" fill="#C09442"/>
<path d="M58.7213 96.9714L58.5078 96.5444L183.182 -28.1299L183.396 -27.9164L58.7213 96.9714Z" fill="#BE9240"/>
<path d="M58.5079 96.758L58.2944 96.5445L183.182 -28.3433L183.396 -27.9163L58.5079 96.758Z" fill="#BC8F3E"/>
<path d="M58.5079 96.5445L58.2944 96.331L182.969 -28.3433L183.182 -28.1298L58.5079 96.5445Z" fill="#BA8C3D"/>
<path d="M58.2945 96.3307L58.0811 96.1172L182.755 -28.5571L182.969 -28.3436L58.2945 96.3307Z" fill="#B98A3A"/>
<path d="M58.0812 96.3308L57.8677 96.1173L182.542 -28.7705L182.969 -28.557L58.0812 96.3308Z" fill="#B78738"/>
<path d="M58.0808 96.1173L57.6538 95.9038L182.542 -28.7705L182.755 -28.557L58.0808 96.1173Z" fill="#B58537"/>
<path d="M57.8673 95.9039L57.6538 95.6904L182.328 -28.9839L182.542 -28.7704L57.8673 95.9039Z" fill="#B28235"/>
<path d="M57.6539 95.69L57.4404 95.4766L182.115 -29.1978L182.328 -28.9843L57.6539 95.69Z" fill="#B18032"/>
<path d="M57.4405 95.6906L57.2271 95.4771L182.115 -29.4106L182.328 -29.1972L57.4405 95.6906Z" fill="#AF7D31"/>
<path d="M57.4405 95.4771L57.2271 95.2637L181.901 -29.4106L182.115 -29.1972L57.4405 95.4771Z" fill="#AD7B30"/>
<path d="M57.2267 95.2633L57.0132 95.0498L181.687 -29.6245L181.901 -29.411L57.2267 95.2633Z" fill="#AC792E"/>
<path d="M57.0138 95.2634L56.8003 94.8364L181.475 -29.8379L181.688 -29.6244L57.0138 95.2634Z" fill="#AA762C"/>
<path d="M56.7999 95.05L56.5864 94.8365L181.474 -30.0513L181.688 -29.6243L56.7999 95.05Z" fill="#A8742B"/>
<path d="M56.7999 94.8365L56.5864 94.623L181.261 -30.0513L181.474 -29.8378L56.7999 94.8365Z" fill="#A6722A"/>
<path d="M56.5865 94.6227L56.373 94.4092L181.047 -30.2651L181.261 -30.0517L56.5865 94.6227Z" fill="#A56F28"/>
<path d="M56.3732 94.6232L56.1597 94.1963L180.834 -30.478L181.047 -30.2645L56.3732 94.6232Z" fill="#A36D26"/>
<path d="M56.1598 94.4094L55.9463 94.1959L180.834 -30.6919L181.048 -30.2649L56.1598 94.4094Z" fill="#A16B25"/>
<path d="M56.1598 94.1959L55.9463 93.9824L180.621 -30.6919L180.834 -30.4784L56.1598 94.1959Z" fill="#A06924"/>
<path d="M55.9464 93.9825L55.7329 93.769L180.407 -30.9053L180.621 -30.6918L55.9464 93.9825Z" fill="#A16B25"/>
<path d="M55.7325 93.9826L55.519 93.7691L180.193 -31.1187L180.62 -30.9052L55.7325 93.9826Z" fill="#A36D26"/>
<path d="M55.7326 93.7691L55.3057 93.5557L180.193 -31.1187L180.407 -30.9052L55.7326 93.7691Z" fill="#A56F28"/>
<path d="M55.5191 93.5558L55.3057 93.3423L179.98 -31.332L180.193 -31.1185L55.5191 93.5558Z" fill="#A6722A"/>
<path d="M55.3058 93.3419L55.0923 93.1284L179.767 -31.5459L179.98 -31.3324L55.3058 93.3419Z" fill="#A8742B"/>
<path d="M55.0924 93.342L54.8789 93.1285L179.553 -31.7593L179.98 -31.5458L55.0924 93.342Z" fill="#AA762C"/>
<path d="M55.0924 93.1285L54.8789 92.915L179.553 -31.7593L179.767 -31.5458L55.0924 93.1285Z" fill="#AC792E"/>
<path d="M54.8785 92.9151L54.665 92.7017L179.339 -31.9727L179.553 -31.7592L54.8785 92.9151Z" fill="#AD7B30"/>
<path d="M54.6651 92.7013L54.4517 92.4878L179.126 -32.1865L179.339 -31.973L54.6651 92.7013Z" fill="#AF7D31"/>
<path d="M54.4518 92.7019L54.2383 92.4884L179.126 -32.3994L179.34 -31.9724L54.4518 92.7019Z" fill="#B18032"/>
<path d="M54.4518 92.4884L54.2383 92.2749L178.913 -32.3994L179.126 -32.1859L54.4518 92.4884Z" fill="#B28235"/>
<path d="M54.2379 92.2745L54.0244 92.061L178.699 -32.6133L178.912 -32.3998L54.2379 92.2745Z" fill="#B58537"/>
<path d="M54.025 92.2746L53.8115 91.8476L178.486 -32.8267L178.699 -32.6132L54.025 92.2746Z" fill="#B78738"/>
<path d="M53.8111 92.0612L53.5977 91.8477L178.485 -33.04L178.699 -32.6131L53.8111 92.0612Z" fill="#B98A3A"/>
<path d="M53.8111 91.8478L53.5977 91.6343L178.272 -33.04L178.485 -32.8266L53.8111 91.8478Z" fill="#BA8C3D"/>
<path d="M53.5978 91.6344L53.3843 91.4209L178.059 -33.2534L178.272 -33.0399L53.5978 91.6344Z" fill="#BC8F3E"/>
<path d="M53.3844 91.634L53.1709 91.4205L177.845 -33.4673L178.272 -33.2538L53.3844 91.634Z" fill="#BE9240"/>
<path d="M53.3845 91.4205L52.9575 91.207L177.845 -33.4673L178.059 -33.2538L53.3845 91.4205Z" fill="#C09442"/>
<path d="M53.171 91.2071L52.9575 90.9936L177.632 -33.6807L177.845 -33.4672L53.171 91.2071Z" fill="#C19645"/>
<path d="M52.9571 90.9938L52.7437 90.7803L177.418 -33.894L177.631 -33.6806L52.9571 90.9938Z" fill="#C49A47"/>
<path d="M52.7438 90.9938L52.5303 90.7804L177.205 -34.1074L177.632 -33.8939L52.7438 90.9938Z" fill="#C59C49"/>
<path d="M52.7438 90.7804L52.5303 90.5669L177.205 -34.1074L177.418 -33.8939L52.7438 90.7804Z" fill="#C79F4C"/>
<path d="M52.5304 90.567L52.3169 90.3535L176.991 -34.3208L177.205 -34.1073L52.5304 90.567Z" fill="#C9A14E"/>
<path d="M52.317 90.3531L52.1035 90.1396L176.778 -34.5347L176.991 -34.3212L52.317 90.3531Z" fill="#CBA450"/>
<path d="M52.1036 90.3532L51.8901 90.1397L176.778 -34.748L176.991 -34.5346L52.1036 90.3532Z" fill="#CDA753"/>
<path d="M52.1036 90.1397L51.8901 89.9263L176.564 -34.748L176.778 -34.5346L52.1036 90.1397Z" fill="#CFA955"/>
<path d="M51.8898 89.9264L51.6763 89.7129L176.351 -34.9614L176.564 -34.7479L51.8898 89.9264Z" fill="#D0AC58"/>
<path d="M51.6769 89.926L51.4634 89.499L176.138 -35.1753L176.351 -34.9618L51.6769 89.926Z" fill="#D2AE5A"/>
<path d="M51.463 89.7131L51.2495 89.4996L176.137 -35.3882L176.351 -34.9612L51.463 89.7131Z" fill="#D4B15D"/>
<path d="M51.463 89.4996L51.2495 89.2861L175.924 -35.3882L176.137 -35.1747L51.463 89.4996Z" fill="#D6B45F"/>
<path d="M51.2496 89.2857L51.0361 89.0723L175.71 -35.6021L175.924 -35.3886L51.2496 89.2857Z" fill="#D7B662"/>
<path d="M51.0362 89.2858L50.8228 89.0724L175.497 -35.8154L175.924 -35.6019L51.0362 89.2858Z" fill="#D9B964"/>
<path d="M51.0359 89.0724L50.6089 88.8589L175.497 -35.8154L175.71 -35.6019L51.0359 89.0724Z" fill="#DBBC67"/>
<path d="M50.8224 88.859L50.6089 88.6455L175.283 -36.0288L175.497 -35.8153L50.8224 88.859Z" fill="#DDBE69"/>
<path d="M50.609 88.6456L50.3955 88.4321L175.07 -36.2422L175.283 -36.0287L50.609 88.6456Z" fill="#DFC26D"/>
<path d="M50.3956 88.6452L50.1821 88.4317L174.856 -36.4561L175.283 -36.2426L50.3956 88.6452Z" fill="#E1C570"/>
<path d="M50.3957 88.4317L49.9688 88.2183L174.857 -36.4561L175.07 -36.2426L50.3957 88.4317Z" fill="#E3C872"/>
<path d="M50.1822 88.2184L49.9688 88.0049L174.643 -36.6694L174.857 -36.456L50.1822 88.2184Z" fill="#E5CA75"/>
<path d="M49.9684 88.005L49.7549 87.7915L174.429 -36.8828L174.643 -36.6693L49.9684 88.005Z" fill="#E7CD78"/>
<path d="M49.755 88.0046L49.5415 87.7911L174.429 -37.0967L174.643 -36.8832L49.755 88.0046Z" fill="#E9D07B"/>
<path d="M49.755 87.7911L49.5415 87.5776L174.216 -37.0967L174.429 -36.8832L49.755 87.7911Z" fill="#EAD37E"/>
<path d="M49.5416 87.5782L49.3281 87.3647L174.002 -37.3096L174.216 -37.0961L49.5416 87.5782Z" fill="#ECD681"/>
<path d="M49.3277 87.5778L49.1143 87.1509L173.789 -37.5234L174.002 -37.31L49.3277 87.5778Z" fill="#EED984"/>
<path d="M49.1149 87.3649L48.9014 87.1515L173.789 -37.7363L174.003 -37.3094L49.1149 87.3649Z" fill="#F0DC87"/>
<path d="M49.1149 87.1515L48.9014 86.938L173.576 -37.7363L173.789 -37.5228L49.1149 87.1515Z" fill="#F2DF8A"/>
<path d="M48.901 86.9376L48.6875 86.7241L173.362 -37.9502L173.575 -37.7367L48.901 86.9376Z" fill="#F3E28D"/>
<path d="M48.6881 86.9372L48.4746 86.7237L173.149 -38.1641L173.576 -37.9506L48.6881 86.9372Z" fill="#F5E590"/>
<path d="M48.6877 86.7237L48.2607 86.5102L173.149 -38.1641L173.362 -37.9506L48.6877 86.7237Z" fill="#F7E893"/>
<path d="M48.4742 86.5108L48.2607 86.2974L172.935 -38.377L173.149 -38.1635L48.4742 86.5108Z" fill="#F8E994"/>
<path d="M48.2608 86.297L48.0474 86.0835L172.722 -38.5908L172.935 -38.3773L48.2608 86.297Z" fill="#F7E792"/>
<path d="M48.0475 86.2971L47.834 86.0836L172.508 -38.8042L172.935 -38.5907L48.0475 86.2971Z" fill="#F6E691"/>
<path d="M48.0471 86.0836L47.6201 85.8701L172.508 -38.8042L172.721 -38.5907L48.0471 86.0836Z" fill="#F5E48F"/>
<path d="M47.8336 85.8702L47.6201 85.6567L172.294 -39.0176L172.508 -38.8041L47.8336 85.8702Z" fill="#F4E28E"/>
<path d="M47.6202 85.6568L47.4067 85.4434L172.081 -39.231L172.295 -39.0175L47.6202 85.6568Z" fill="#F4E28D"/>
<path d="M47.4068 85.6564L47.1934 85.443L172.081 -39.4448L172.295 -39.2313L47.4068 85.6564Z" fill="#F3E08B"/>
<path d="M47.4068 85.443L47.1934 85.2295L171.868 -39.4448L172.081 -39.2313L47.4068 85.443Z" fill="#F2DF8A"/>
<path d="M47.1935 85.2296L46.98 85.0161L171.654 -39.6582L171.868 -39.4447L47.1935 85.2296Z" fill="#F1DD88"/>
<path d="M46.9796 85.2297L46.7661 84.8027L171.44 -39.8716L171.654 -39.6581L46.9796 85.2297Z" fill="#F1DC87"/>
<path d="M46.7662 85.0158L46.5527 84.8023L171.441 -40.0854L171.654 -39.6585L46.7662 85.0158Z" fill="#F0DB85"/>
<path d="M46.7662 84.8023L46.5527 84.5889L171.227 -40.0854L171.441 -39.872L46.7662 84.8023Z" fill="#EFD984"/>
<path d="M46.5528 84.5895L46.3394 84.376L171.014 -40.2983L171.227 -40.0849L46.5528 84.5895Z" fill="#EED782"/>
<path d="M46.339 84.5891L46.1255 84.1621L170.8 -40.5122L171.227 -40.2987L46.339 84.5891Z" fill="#EED781"/>
<path d="M46.3396 84.3756L45.9126 84.1621L170.8 -40.5122L171.014 -40.2987L46.3396 84.3756Z" fill="#EDD580"/>
<path d="M46.1261 84.1622L45.9126 83.9487L170.587 -40.7256L170.8 -40.5121L46.1261 84.1622Z" fill="#ECD47F"/>
<path d="M45.9122 83.9488L45.6987 83.7353L170.373 -40.939L170.587 -40.7255L45.9122 83.9488Z" fill="#ECD37D"/>
<path d="M45.6988 83.9489L45.4854 83.7354L170.16 -41.1523L170.587 -40.9389L45.6988 83.9489Z" fill="#EAD17B"/>
<path d="M45.6989 83.7355L45.272 83.522L170.16 -41.1523L170.373 -40.9389L45.6989 83.7355Z" fill="#EAD07A"/>
<path d="M45.4855 83.5221L45.272 83.3086L169.946 -41.3657L170.16 -41.1522L45.4855 83.5221Z" fill="#E9CF78"/>
<path d="M45.2721 83.3082L45.0586 83.0947L169.733 -41.5796L169.946 -41.3661L45.2721 83.3082Z" fill="#E9CD77"/>
<path d="M45.0587 83.3083L44.8452 83.0948L169.733 -41.793L169.946 -41.5795L45.0587 83.3083Z" fill="#E8CB76"/>
<path d="M45.0587 83.0948L44.8452 82.8813L169.52 -41.793L169.733 -41.5795L45.0587 83.0948Z" fill="#E7CB75"/>
<path d="M44.8448 82.8814L44.6313 82.668L169.306 -42.0063L169.519 -41.7929L44.8448 82.8814Z" fill="#E7C973"/>
<path d="M44.6315 82.8815L44.418 82.4546L169.092 -42.2197L169.306 -42.0062L44.6315 82.8815Z" fill="#E5C872"/>
<path d="M44.4181 82.6677L44.2046 82.4542L169.092 -42.4336L169.306 -42.0066L44.4181 82.6677Z" fill="#E4C671"/>
<path d="M44.4181 82.4542L44.2046 82.2407L168.879 -42.4336L169.092 -42.2201L44.4181 82.4542Z" fill="#E4C56F"/>
<path d="M44.2047 82.2408L43.9912 82.0273L168.666 -42.647L168.879 -42.4335L44.2047 82.2408Z" fill="#E3C46E"/>
<path d="M43.9908 82.2409L43.7773 81.8139L168.452 -42.8604L168.665 -42.6469L43.9908 82.2409Z" fill="#E3C36C"/>
<path d="M43.9914 82.0274L43.5645 81.814L168.452 -42.8604L168.666 -42.6469L43.9914 82.0274Z" fill="#E2C16B"/>
<path d="M43.7779 81.8136L43.5645 81.6001L168.239 -43.0742L168.452 -42.8607L43.7779 81.8136Z" fill="#E1C06A"/>
<path d="M43.5641 81.6007L43.3506 81.3872L168.025 -43.2871L168.238 -43.0736L43.5641 81.6007Z" fill="#E0BF69"/>
<path d="M43.3507 81.6003L43.1372 81.3868L167.812 -43.501L168.238 -43.2875L43.3507 81.6003Z" fill="#DFBE67"/>
<path d="M43.3508 81.3868L42.9238 81.1733L167.812 -43.501L168.025 -43.2875L43.3508 81.3868Z" fill="#DFBC66"/>
<path d="M43.1373 81.1734L42.9238 80.96L167.598 -43.7144L167.812 -43.5009L43.1373 81.1734Z" fill="#DEBB64"/>
<path d="M42.9234 80.9601L42.71 80.7466L167.384 -43.9277L167.598 -43.7143L42.9234 80.9601Z" fill="#DEBA63"/>
<path d="M42.7101 80.9602L42.4966 80.7467L167.384 -44.1411L167.598 -43.9276L42.7101 80.9602Z" fill="#DDB962"/>
<path d="M42.7101 80.7467L42.4966 80.5332L167.171 -44.1411L167.384 -43.9276L42.7101 80.7467Z" fill="#DBB761"/>
<path d="M42.4967 80.5328L42.2832 80.3193L166.958 -44.355L167.171 -44.1415L42.4967 80.5328Z" fill="#DBB65F"/>
<path d="M42.2833 80.5329L42.0698 80.1059L166.744 -44.5684L166.958 -44.3549L42.2833 80.5329Z" fill="#DAB45E"/>
<path d="M42.0694 80.3195L41.856 80.106L166.744 -44.7817L166.957 -44.3548L42.0694 80.3195Z" fill="#DAB45D"/>
<path d="M42.0694 80.1061L41.856 79.8926L166.53 -44.7817L166.744 -44.5683L42.0694 80.1061Z" fill="#D9B35C"/>
<path d="M41.8561 79.8927L41.6426 79.6792L166.317 -44.9951L166.53 -44.7816L41.8561 79.8927Z" fill="#D8B15B"/>
<path d="M41.6427 79.8928L41.4292 79.4658L166.104 -45.2085L166.317 -44.995L41.6427 79.8928Z" fill="#D7AF59"/>
<path d="M41.4293 79.6789L41.2158 79.4654L166.104 -45.4224L166.317 -44.9954L41.4293 79.6789Z" fill="#D6AF58"/>
<path d="M41.4293 79.4654L41.2158 79.2519L165.89 -45.4224L166.104 -45.2089L41.4293 79.4654Z" fill="#D6AD57"/>
<path d="M41.2159 79.2525L41.0024 79.0391L165.677 -45.6353L165.89 -45.4218L41.2159 79.2525Z" fill="#D5AC56"/>
<path d="M41.0021 79.2521L40.7886 79.0387L165.463 -45.8491L165.89 -45.6356L41.0021 79.2521Z" fill="#D4AB55"/>
<path d="M41.0027 79.0387L40.5757 78.8252L165.463 -45.8491L165.677 -45.6356L41.0027 79.0387Z" fill="#D4AA54"/>
<path d="M40.7892 78.8253L40.5757 78.6118L165.25 -46.0625L165.463 -45.849L40.7892 78.8253Z" fill="#D3A953"/>
<path d="M40.5753 78.6119L40.3618 78.3984L165.036 -46.2759L165.25 -46.0624L40.5753 78.6119Z" fill="#D2A751"/>
<path d="M40.3619 78.6115L40.1484 78.398L165.036 -46.4897L165.25 -46.2763L40.3619 78.6115Z" fill="#D1A650"/>
<path d="M40.3619 78.398L40.1484 78.1846L164.823 -46.4897L165.036 -46.2763L40.3619 78.398Z" fill="#D0A44F"/>
<path d="M40.1485 78.1847L39.9351 77.9712L164.609 -46.7031L164.823 -46.4896L40.1485 78.1847Z" fill="#D0A44E"/>
<path d="M39.9347 78.1848L39.7212 77.7578L164.396 -46.9165L164.609 -46.703L39.9347 78.1848Z" fill="#CFA24D"/>
<path d="M39.7213 77.9714L39.5078 77.7579L164.396 -47.1299L164.609 -46.7029L39.7213 77.9714Z" fill="#CEA14C"/>
<path d="M39.7213 77.7579L39.5078 77.5444L164.182 -47.1299L164.396 -46.9164L39.7213 77.7579Z" fill="#CDA04A"/>
<path d="M39.5079 77.544L39.2944 77.3306L163.969 -47.3438L164.182 -47.1303L39.5079 77.544Z" fill="#CD9F4A"/>
<path d="M39.2945 77.5441L39.0811 77.1172L163.755 -47.5571L163.969 -47.3436L39.2945 77.5441Z" fill="#CC9E49"/>
<path d="M39.0807 77.3308L38.8672 77.1173L163.755 -47.7705L163.968 -47.3435L39.0807 77.3308Z" fill="#CB9C47"/>
<path d="M39.0807 77.1173L38.8672 76.9038L163.541 -47.7705L163.755 -47.557L39.0807 77.1173Z" fill="#CA9B46"/>
<path d="M38.8678 76.9034L38.6543 76.6899L163.329 -47.9844L163.542 -47.7709L38.8678 76.9034Z" fill="#C99945"/>
<path d="M38.6539 76.904L38.4404 76.6905L163.115 -48.1973L163.542 -47.9838L38.6539 76.904Z" fill="#C99944"/>
<path d="M38.6535 76.6905L38.2266 76.477L163.114 -48.1973L163.328 -47.9838L38.6535 76.6905Z" fill="#C89743"/>
<path d="M38.44 76.4767L38.2266 76.2632L162.901 -48.4111L163.114 -48.1976L38.44 76.4767Z" fill="#C89642"/>
<path d="M38.2272 76.2638L38.0137 76.0503L162.688 -48.624L162.901 -48.4105L38.2272 76.2638Z" fill="#C69441"/>
<path d="M38.0133 76.2634L37.7998 76.0499L162.688 -48.8379L162.901 -48.6244L38.0133 76.2634Z" fill="#C69440"/>
<path d="M38.0133 76.0499L37.7998 75.8364L162.474 -48.8379L162.688 -48.6244L38.0133 76.0499Z" fill="#C5923F"/>
<path d="M37.8004 75.8365L37.5869 75.623L162.261 -49.0513L162.475 -48.8378L37.8004 75.8365Z" fill="#C5913E"/>
<path d="M37.5865 75.8366L37.373 75.4097L162.047 -49.2646L162.261 -49.0512L37.5865 75.8366Z" fill="#C4903C"/>
<path d="M37.3732 75.6227L37.1597 75.4093L162.047 -49.4785L162.261 -49.0515L37.3732 75.6227Z" fill="#C48F3C"/>
<path d="M37.3732 75.4093L37.1597 75.1958L161.834 -49.4785L162.047 -49.265L37.3732 75.4093Z" fill="#C28D3B"/>
<path d="M37.1598 75.1959L36.9463 74.9824L161.621 -49.6919L161.834 -49.4784L37.1598 75.1959Z" fill="#C18C3A"/>
<path d="M36.9459 75.196L36.7324 74.769L161.407 -49.9053L161.62 -49.6918L36.9459 75.196Z" fill="#C18B39"/>
<path d="M36.7325 74.9826L36.519 74.7691L161.407 -50.1187L161.62 -49.6917L36.7325 74.9826Z" fill="#C08A38"/>
<path d="M36.7325 74.7691L36.519 74.5557L161.193 -50.1187L161.407 -49.9052L36.7325 74.7691Z" fill="#C08837"/>
<path d="M36.5191 74.5553L36.3057 74.3418L160.98 -50.3325L161.193 -50.119L36.5191 74.5553Z" fill="#BF8736"/>
<path d="M36.3058 74.5559L36.0923 74.3424L160.767 -50.5454L161.194 -50.3319L36.3058 74.5559Z" fill="#BE8635"/>
<path d="M36.3054 74.3424L35.8784 74.1289L160.766 -50.5454L160.98 -50.3319L36.3054 74.3424Z" fill="#BD8534"/>
<path d="M36.0919 74.1285L35.8784 73.915L160.553 -50.7593L160.766 -50.5458L36.0919 74.1285Z" fill="#BD8433"/>
<path d="M35.879 73.9146L35.6655 73.7012L160.34 -50.9731L160.553 -50.7597L35.879 73.9146Z" fill="#BC8232"/>
<path d="M35.6651 73.9152L35.4517 73.7018L160.126 -51.186L160.553 -50.9726L35.6651 73.9152Z" fill="#BB8132"/>
<path d="M35.6651 73.7018L35.4517 73.4883L160.126 -51.186L160.339 -50.9726L35.6651 73.7018Z" fill="#BC8232"/>
<path d="M35.4518 73.4879L35.2383 73.2744L159.913 -51.3999L160.126 -51.1864L35.4518 73.4879Z" fill="#BD8434"/>
<path d="M35.2384 73.2745L35.0249 73.061L159.699 -51.6133L159.913 -51.3998L35.2384 73.2745Z" fill="#BE8535"/>
<path d="M35.0245 73.2746L34.811 73.0611L159.699 -51.8267L159.912 -51.3997L35.0245 73.2746Z" fill="#BE8735"/>
<path d="M35.0245 73.0611L34.811 72.8476L159.485 -51.8267L159.699 -51.6132L35.0245 73.0611Z" fill="#BF8837"/>
<path d="M34.8111 72.8478L34.5977 72.6343L159.272 -52.04L159.485 -51.8266L34.8111 72.8478Z" fill="#C08938"/>
<path d="M34.5978 72.8478L34.3843 72.4209L159.059 -52.2534L159.272 -52.0399L34.5978 72.8478Z" fill="#C18B39"/>
<path d="M34.3844 72.634L34.1709 72.4205L159.059 -52.4673L159.272 -52.0403L34.3844 72.634Z" fill="#C18C3A"/>
<path d="M34.3844 72.4205L34.1709 72.207L158.845 -52.4673L159.059 -52.2538L34.3844 72.4205Z" fill="#C38E3B"/>
<path d="M34.171 72.2071L33.9575 71.9936L158.632 -52.6807L158.845 -52.4672L34.171 72.2071Z" fill="#C48F3C"/>
<path d="M33.9571 72.2072L33.7437 71.9937L158.418 -52.894L158.845 -52.6806L33.9571 72.2072Z" fill="#C4903D"/>
<path d="M33.9572 71.9938L33.5303 71.7803L158.418 -52.894L158.632 -52.6806L33.9572 71.9938Z" fill="#C5923F"/>
<path d="M33.7438 71.7804L33.5303 71.5669L158.205 -53.1074L158.418 -52.8939L33.7438 71.7804Z" fill="#C59340"/>
<path d="M33.5304 71.5665L33.3169 71.353L157.991 -53.3213L158.205 -53.1078L33.5304 71.5665Z" fill="#C79541"/>
<path d="M33.317 71.5671L33.1035 71.3536L157.778 -53.5342L158.205 -53.3207L33.317 71.5671Z" fill="#C89642"/>
<path d="M33.317 71.3536L33.1035 71.1401L157.778 -53.5342L157.991 -53.3207L33.317 71.3536Z" fill="#C99843"/>
<path d="M33.1031 71.1397L32.8896 70.9263L157.564 -53.748L157.777 -53.5346L33.1031 71.1397Z" fill="#C99944"/>
<path d="M32.8902 70.9264L32.6768 70.7129L157.351 -53.9614L157.565 -53.7479L32.8902 70.9264Z" fill="#CA9A46"/>
<path d="M32.6764 70.9265L32.4629 70.713L157.351 -54.1748L157.564 -53.9613L32.6764 70.9265Z" fill="#CB9C47"/>
<path d="M32.6764 70.713L32.4629 70.4995L157.137 -54.1748L157.351 -53.9613L32.6764 70.713Z" fill="#CC9D48"/>
<path d="M32.463 70.4991L32.2495 70.2856L156.924 -54.3887L157.137 -54.1752L32.463 70.4991Z" fill="#CD9E4A"/>
<path d="M32.2496 70.4992L32.0361 70.0723L156.71 -54.6021L156.924 -54.3886L32.2496 70.4992Z" fill="#CDA04B"/>
<path d="M32.0357 70.2858L31.8223 70.0724L156.71 -54.8154L156.924 -54.3885L32.0357 70.2858Z" fill="#CEA14C"/>
<path d="M32.0357 70.0724L31.8223 69.8589L156.497 -54.8154L156.71 -54.6019L32.0357 70.0724Z" fill="#CFA34E"/>
<path d="M31.8224 69.859L31.6089 69.6455L156.283 -55.0288L156.497 -54.8153L31.8224 69.859Z" fill="#D0A44F"/>
<path d="M31.609 69.8586L31.3955 69.6451L156.07 -55.2427L156.497 -55.0292L31.609 69.8586Z" fill="#D1A650"/>
<path d="M31.6091 69.6451L31.1821 69.4316L156.07 -55.2427L156.283 -55.0292L31.6091 69.6451Z" fill="#D2A751"/>
<path d="M31.3956 69.4317L31.1821 69.2183L155.856 -55.4561L156.07 -55.2426L31.3956 69.4317Z" fill="#D3A953"/>
<path d="M31.1817 69.2184L30.9683 69.0049L155.643 -55.6694L155.856 -55.456L31.1817 69.2184Z" fill="#D4AA54"/>
<path d="M30.9689 69.2185L30.7554 69.005L155.43 -55.8828L155.857 -55.6693L30.9689 69.2185Z" fill="#D4AB55"/>
<path d="M30.9685 69.005L30.5415 68.7915L155.429 -55.8828L155.643 -55.6693L30.9685 69.005Z" fill="#D5AD57"/>
<path d="M30.755 68.7916L30.5415 68.5781L155.216 -56.0962L155.429 -55.8827L30.755 68.7916Z" fill="#D6AE58"/>
<path d="M30.5416 68.5777L30.3281 68.3643L155.002 -56.3101L155.216 -56.0966L30.5416 68.5777Z" fill="#D7B05A"/>
<path d="M30.3282 68.5783L30.1147 68.3648L155.003 -56.5229L155.216 -56.3095L30.3282 68.5783Z" fill="#D8B15C"/>
<path d="M30.3282 68.3648L30.1147 68.1514L154.789 -56.5229L155.003 -56.3095L30.3282 68.3648Z" fill="#D9B25D"/>
<path d="M30.1144 68.151L29.9009 67.9375L154.575 -56.7368L154.789 -56.5233L30.1144 68.151Z" fill="#DAB45E"/>
<path d="M29.9015 68.1511L29.688 67.7241L154.362 -56.9502L154.576 -56.7367L29.9015 68.1511Z" fill="#DBB560"/>
<path d="M29.6876 67.9377L29.4741 67.7242L154.362 -57.1636L154.575 -56.7366L29.6876 67.9377Z" fill="#DBB661"/>
<path d="M29.6876 67.7242L29.4741 67.5107L154.148 -57.1636L154.362 -56.9501L29.6876 67.7242Z" fill="#DCB862"/>
<path d="M29.4742 67.5104L29.2607 67.2969L153.935 -57.3774L154.149 -57.164L29.4742 67.5104Z" fill="#DDBA64"/>
<path d="M29.2608 67.5104L29.0474 67.297L153.722 -57.5908L154.149 -57.3773L29.2608 67.5104Z" fill="#DEBB66"/>
<path d="M29.2605 67.297L28.8335 67.0835L153.721 -57.5908L153.935 -57.3773L29.2605 67.297Z" fill="#DFBC67"/>
<path d="M29.047 67.0836L28.8335 66.8701L153.508 -57.8042L153.721 -57.5907L29.047 67.0836Z" fill="#E0BE69"/>
<path d="M28.8336 66.8702L28.6201 66.6567L153.294 -58.0176L153.508 -57.8041L28.8336 66.8702Z" fill="#E1BF6A"/>
<path d="M28.6202 66.8698L28.4067 66.6563L153.081 -58.2314L153.508 -58.018L28.6202 66.8698Z" fill="#E2C16C"/>
<path d="M28.6203 66.6563L28.1934 66.4429L153.081 -58.2314L153.295 -58.018L28.6203 66.6563Z" fill="#E3C26D"/>
<path d="M28.4068 66.4435L28.1934 66.23L152.868 -58.4443L153.081 -58.2309L28.4068 66.4435Z" fill="#E3C36F"/>
<path d="M28.193 66.2296L27.9795 66.0161L152.654 -58.6582L152.867 -58.4447L28.193 66.2296Z" fill="#E4C570"/>
<path d="M27.9801 66.2297L27.7666 66.0162L152.654 -58.8716L152.868 -58.6581L27.9801 66.2297Z" fill="#E5C671"/>
<path d="M27.9801 66.0162L27.7666 65.8027L152.441 -58.8716L152.654 -58.6581L27.9801 66.0162Z" fill="#E6C874"/>
<path d="M27.7662 65.8028L27.5527 65.5893L152.227 -59.085L152.441 -58.8715L27.7662 65.8028Z" fill="#E7CA75"/>
<path d="M27.5528 65.8024L27.3394 65.3755L152.014 -59.2988L152.227 -59.0853L27.5528 65.8024Z" fill="#E7CB76"/>
<path d="M27.3395 65.5895L27.126 65.3761L152.014 -59.5117L152.227 -59.0848L27.3395 65.5895Z" fill="#E9CD79"/>
<path d="M27.3395 65.3761L27.126 65.1626L151.8 -59.5117L152.014 -59.2982L27.3395 65.3761Z" fill="#EACE7A"/>
<path d="M27.1256 65.1622L26.9121 64.9487L151.586 -59.7256L151.8 -59.5121L27.1256 65.1622Z" fill="#EAD07B"/>
<path d="M26.9127 65.1623L26.6992 64.7353L151.374 -59.939L151.587 -59.7255L26.9127 65.1623Z" fill="#EBD17D"/>
<path d="M26.9123 64.9488L26.4854 64.7353L151.373 -59.939L151.587 -59.7255L26.9123 64.9488Z" fill="#ECD37F"/>
<path d="M26.6988 64.7355L26.4854 64.522L151.16 -60.1523L151.373 -59.9389L26.6988 64.7355Z" fill="#EDD580"/>
<path d="M26.4855 64.5216L26.272 64.3081L150.946 -60.3662L151.16 -60.1527L26.4855 64.5216Z" fill="#EED683"/>
<path d="M26.2721 64.5217L26.0586 64.3082L150.733 -60.5796L151.16 -60.3661L26.2721 64.5217Z" fill="#EFD884"/>
<path d="M26.2717 64.3082L25.8447 64.0947L150.733 -60.5796L150.946 -60.3661L26.2717 64.3082Z" fill="#F0D985"/>
<path d="M26.0582 64.0948L25.8447 63.8813L150.519 -60.793L150.733 -60.5795L26.0582 64.0948Z" fill="#F0DB88"/>
<path d="M25.8448 63.8814L25.6313 63.668L150.306 -61.0063L150.519 -60.7929L25.8448 63.8814Z" fill="#F1DD89"/>
<path d="M25.6315 63.8811L25.418 63.6676L150.306 -61.2202L150.519 -61.0067L25.6315 63.8811Z" fill="#F2DE8A"/>
<path d="M25.6315 63.6676L25.418 63.4541L150.092 -61.2202L150.306 -61.0067L25.6315 63.6676Z" fill="#F3DF8D"/>
<path d="M25.4181 63.4547L25.2046 63.2412L149.879 -61.4331L150.092 -61.2196L25.4181 63.4547Z" fill="#F4E18E"/>
<path d="M25.2042 63.4543L24.9907 63.0273L149.665 -61.647L149.879 -61.4335L25.2042 63.4543Z" fill="#F5E390"/>
<path d="M24.9913 63.2409L24.7778 63.0274L149.666 -61.8604L149.879 -61.4334L24.9913 63.2409Z" fill="#F5E491"/>
<path d="M24.9913 63.0274L24.7778 62.814L149.452 -61.8604L149.666 -61.6469L24.9913 63.0274Z" fill="#F7E693"/>
<path d="M24.7774 62.8141L24.564 62.6006L149.238 -62.0737L149.452 -61.8602L24.7774 62.8141Z" fill="#F7E895"/>
<path d="M24.5641 62.8137L24.3506 62.3867L149.025 -62.2876L149.238 -62.0741L24.5641 62.8137Z" fill="#F8E996"/>
<path d="M24.5642 62.6002L24.1372 62.3867L149.025 -62.2876L149.238 -62.0741L24.5642 62.6002Z" fill="#F7E896"/>
<path d="M24.3507 62.3873L24.1372 62.1738L148.812 -62.5005L149.025 -62.287L24.3507 62.3873Z" fill="#F6E795"/>
<path d="M24.1368 62.1734L23.9233 61.96L148.598 -62.7144L148.811 -62.5009L24.1368 62.1734Z" fill="#F5E592"/>
<path d="M23.9234 62.1735L23.71 61.9601L148.384 -62.9277L148.811 -62.7143L23.9234 62.1735Z" fill="#F5E490"/>
<path d="M23.9235 61.9601L23.4966 61.7466L148.384 -62.9277L148.598 -62.7143L23.9235 61.9601Z" fill="#F2E18E"/>
<path d="M23.7101 61.7467L23.4966 61.5332L148.171 -63.1411L148.384 -62.9276L23.7101 61.7467Z" fill="#F2E08C"/>
<path d="M23.4967 61.5333L23.2832 61.3198L147.958 -63.3545L148.171 -63.141L23.4967 61.5333Z" fill="#F0DE8A"/>
<path d="M23.2833 61.5329L23.0698 61.3194L147.958 -63.5684L148.171 -63.3549L23.2833 61.5329Z" fill="#EFDD88"/>
<path d="M23.2833 61.3194L23.0698 61.1059L147.744 -63.5684L147.958 -63.3549L23.2833 61.3194Z" fill="#EDDA85"/>
<path d="M23.0699 61.1061L22.8564 60.8926L147.531 -63.7817L147.744 -63.5683L23.0699 61.1061Z" fill="#ECD884"/>
<path d="M22.8561 61.1061L22.6426 60.6792L147.317 -63.9951L147.53 -63.7816L22.8561 61.1061Z" fill="#ECD782"/>
<path d="M22.6427 60.8923L22.4292 60.6788L147.317 -64.209L147.53 -63.782L22.6427 60.8923Z" fill="#EAD580"/>
<path d="M22.6427 60.6788L22.4292 60.4653L147.104 -64.209L147.317 -63.9955L22.6427 60.6788Z" fill="#E9D47E"/>
<path d="M22.4293 60.4659L22.2158 60.2524L146.89 -64.4219L147.104 -64.2084L22.4293 60.4659Z" fill="#E7D17B"/>
<path d="M22.2154 60.4655L22.002 60.0386L146.676 -64.6357L146.89 -64.4223L22.2154 60.4655Z" fill="#E6D07A"/>
<path d="M22.0025 60.2521L21.7891 60.0387L146.677 -64.8491L146.89 -64.4222L22.0025 60.2521Z" fill="#E6CF78"/>
<path d="M22.0025 60.0387L21.7891 59.8252L146.463 -64.8491L146.677 -64.6356L22.0025 60.0387Z" fill="#E4CC77"/>
<path d="M21.7887 59.8253L21.5752 59.6118L146.25 -65.0625L146.463 -64.849L21.7887 59.8253Z" fill="#E2CB74"/>
<path d="M21.5753 59.8249L21.3618 59.6114L146.036 -65.2764L146.463 -65.0629L21.5753 59.8249Z" fill="#E1C973"/>
<path d="M21.5754 59.6114L21.1484 59.3979L146.036 -65.2764L146.25 -65.0629L21.5754 59.6114Z" fill="#E0C871"/>
<path d="M21.3619 59.398L21.1484 59.1846L145.823 -65.4897L146.036 -65.2763L21.3619 59.398Z" fill="#DFC66E"/>
<path d="M21.1481 59.1847L20.9346 58.9712L145.609 -65.7031L145.822 -65.4896L21.1481 59.1847Z" fill="#DDC46D"/>
<path d="M20.9347 59.1848L20.7212 58.9713L145.609 -65.9165L145.822 -65.703L20.9347 59.1848Z" fill="#DCC36B"/>
<path d="M20.9347 58.9713L20.7212 58.7578L145.396 -65.9165L145.609 -65.703L20.9347 58.9713Z" fill="#DBC16A"/>
<path d="M20.7213 58.7579L20.5078 58.5444L145.182 -66.1299L145.396 -65.9164L20.7213 58.7579Z" fill="#DABF67"/>
<path d="M20.5079 58.758L20.2944 58.331L144.969 -66.3433L145.182 -66.1298L20.5079 58.758Z" fill="#D9BE65"/>
<path d="M20.294 58.5441L20.0806 58.3307L144.968 -66.5571L145.182 -66.1302L20.294 58.5441Z" fill="#D7BC64"/>
<path d="M20.294 58.3307L20.0806 58.1172L144.755 -66.5571L144.968 -66.3436L20.294 58.3307Z" fill="#D6BB62"/>
<path d="M20.0812 58.1173L19.8677 57.9038L144.542 -66.7705L144.755 -66.557L20.0812 58.1173Z" fill="#D5B961"/>
<path d="M19.8673 58.1174L19.6538 57.6904L144.328 -66.9839L144.542 -66.7704L19.8673 58.1174Z" fill="#D4B75F"/>
<path d="M19.6539 57.9035L19.4404 57.69L144.328 -67.1978L144.542 -66.7708L19.6539 57.9035Z" fill="#D2B55D"/>
<path d="M19.6539 57.69L19.4404 57.4766L144.115 -67.1978L144.328 -66.9843L19.6539 57.69Z" fill="#D1B45B"/>
<path d="M19.4405 57.4771L19.2271 57.2637L143.901 -67.4106L144.115 -67.1972L19.4405 57.4771Z" fill="#D1B259"/>
<path d="M19.2267 57.4768L19.0132 57.2633L143.687 -67.6245L144.114 -67.411L19.2267 57.4768Z" fill="#CFB158"/>
<path d="M19.2273 57.2633L18.8003 57.0498L143.688 -67.6245L143.902 -67.411L19.2273 57.2633Z" fill="#CEAF56"/>
<path d="M19.0138 57.0499L18.8003 56.8364L143.475 -67.8379L143.688 -67.6244L19.0138 57.0499Z" fill="#CCAE55"/>
<path d="M18.7999 56.8365L18.5864 56.623L143.261 -68.0513L143.474 -67.8378L18.7999 56.8365Z" fill="#CCAC53"/>
<path d="M18.5865 56.8361L18.373 56.6227L143.261 -68.2651L143.474 -68.0517L18.5865 56.8361Z" fill="#CBAB51"/>
<path d="M18.5865 56.6227L18.373 56.4092L143.047 -68.2651L143.261 -68.0517L18.5865 56.6227Z" fill="#C9A950"/>
<path d="M18.3732 56.4093L18.1597 56.1958L142.834 -68.4785L143.047 -68.265L18.3732 56.4093Z" fill="#C8A84E"/>
<path d="M18.1598 56.4094L17.9463 55.9824L142.621 -68.6919L142.834 -68.4784L18.1598 56.4094Z" fill="#C6A64D"/>
<path d="M17.9459 56.196L17.7324 55.9825L142.62 -68.9053L142.834 -68.4783L17.9459 56.196Z" fill="#C6A54B"/>
<path d="M17.9459 55.9825L17.7324 55.769L142.407 -68.9053L142.62 -68.6918L17.9459 55.9825Z" fill="#C5A449"/>
<path d="M17.7325 55.7687L17.519 55.5552L142.193 -69.1191L142.407 -68.9057L17.7325 55.7687Z" fill="#C3A248"/>
<path d="M17.5191 55.7692L17.3057 55.3423L141.98 -69.332L142.193 -69.1185L17.5191 55.7692Z" fill="#C2A046"/>
<path d="M17.3053 55.5554L17.0918 55.3419L141.98 -69.5459L142.193 -69.1189L17.3053 55.5554Z" fill="#C09F45"/>
<path d="M17.3053 55.3419L17.0918 55.1284L141.766 -69.5459L141.98 -69.3324L17.3053 55.3419Z" fill="#C09D43"/>
<path d="M17.0924 55.1285L16.8789 54.915L141.553 -69.7593L141.767 -69.5458L17.0924 55.1285Z" fill="#BE9C42"/>
<path d="M16.8785 55.1286L16.665 54.9151L141.339 -69.9727L141.766 -69.7592L16.8785 55.1286Z" fill="#BD9A40"/>
<path d="M16.8786 54.9151L16.4517 54.7017L141.339 -69.9727L141.553 -69.7592L16.8786 54.9151Z" fill="#BC993F"/>
<path d="M16.6651 54.7013L16.4517 54.4878L141.126 -70.1865L141.339 -69.973L16.6651 54.7013Z" fill="#BB973E"/>
<path d="M16.4518 54.4884L16.2383 54.2749L140.913 -70.3994L141.126 -70.1859L16.4518 54.4884Z" fill="#B9963C"/>
<path d="M16.2379 54.488L16.0244 54.2745L140.699 -70.6133L141.126 -70.3998L16.2379 54.488Z" fill="#B8943B"/>
<path d="M16.2379 54.2745L16.0244 54.061L140.699 -70.6133L140.912 -70.3998L16.2379 54.2745Z" fill="#B79339"/>
<path d="M16.025 54.0611L15.8115 53.8476L140.486 -70.8267L140.699 -70.6132L16.025 54.0611Z" fill="#B8943B"/>
<path d="M15.8111 53.8478L15.5977 53.6343L140.272 -71.04L140.485 -70.8266L15.8111 53.8478Z" fill="#B9963C"/>
<path d="M15.5978 53.8478L15.3843 53.6344L140.272 -71.2534L140.486 -70.8265L15.5978 53.8478Z" fill="#BB973E"/>
<path d="M15.5978 53.6344L15.3843 53.4209L140.059 -71.2534L140.272 -71.0399L15.5978 53.6344Z" fill="#BC993F"/>
<path d="M15.3844 53.4205L15.1709 53.207L139.845 -71.4673L140.059 -71.2538L15.3844 53.4205Z" fill="#BD9A40"/>
<path d="M15.171 53.4206L14.9575 52.9936L139.632 -71.6807L139.845 -71.4672L15.171 53.4206Z" fill="#BE9C42"/>
<path d="M14.9571 53.2072L14.7437 52.9937L139.631 -71.894L139.845 -71.4671L14.9571 53.2072Z" fill="#C09D43"/>
<path d="M14.9571 52.9938L14.7437 52.7803L139.418 -71.894L139.631 -71.6806L14.9571 52.9938Z" fill="#C09F45"/>
<path d="M14.7438 52.7799L14.5303 52.5664L139.205 -72.1079L139.418 -71.8944L14.7438 52.7799Z" fill="#C2A046"/>
<path d="M14.5304 52.7805L14.3169 52.567L138.991 -72.3208L139.418 -72.1073L14.5304 52.7805Z" fill="#C3A248"/>
<path d="M14.53 52.567L14.103 52.3535L138.991 -72.3208L139.204 -72.1073L14.53 52.567Z" fill="#C5A449"/>
<path d="M14.3165 52.3531L14.103 52.1396L138.777 -72.5347L138.991 -72.3212L14.3165 52.3531Z" fill="#C6A54B"/>
<path d="M14.1036 52.1397L13.8901 51.9263L138.564 -72.748L138.778 -72.5346L14.1036 52.1397Z" fill="#C6A64D"/>
<path d="M13.8898 52.1398L13.6763 51.9264L138.351 -72.9614L138.778 -72.7479L13.8898 52.1398Z" fill="#C8A84E"/>
<path d="M13.8899 51.9264L13.4629 51.7129L138.351 -72.9614L138.564 -72.7479L13.8899 51.9264Z" fill="#C9A950"/>
<path d="M13.6764 51.7125L13.4629 51.499L138.137 -73.1753L138.351 -72.9618L13.6764 51.7125Z" fill="#CBAB51"/>
<path d="M13.463 51.4996L13.2495 51.2861L137.924 -73.3882L138.137 -73.1747L13.463 51.4996Z" fill="#CCAC53"/>
<path d="M13.2491 51.4992L13.0356 51.2857L137.923 -73.6021L138.137 -73.3886L13.2491 51.4992Z" fill="#CCAE55"/>
<path d="M13.2491 51.2857L13.0356 51.0723L137.71 -73.6021L137.923 -73.3886L13.2491 51.2857Z" fill="#CEAF56"/>
<path d="M13.0362 51.0724L12.8228 50.8589L137.497 -73.8154L137.711 -73.6019L13.0362 51.0724Z" fill="#CFB158"/>
<path d="M12.8224 51.0725L12.6089 50.6455L137.283 -74.0288L137.497 -73.8153L12.8224 51.0725Z" fill="#D1B259"/>
<path d="M12.609 50.8591L12.3955 50.6456L137.283 -74.2422L137.497 -73.8152L12.609 50.8591Z" fill="#D1B45B"/>
<path d="M12.609 50.6456L12.3955 50.4321L137.07 -74.2422L137.283 -74.0287L12.609 50.6456Z" fill="#D2B55D"/>
<path d="M12.3956 50.4317L12.1821 50.2183L136.856 -74.4561L137.07 -74.2426L12.3956 50.4317Z" fill="#D4B75F"/>
<path d="M12.1822 50.4318L11.9688 50.2184L136.643 -74.6694L137.07 -74.456L12.1822 50.4318Z" fill="#D5B961"/>
<path d="M12.1818 50.2184L11.7549 50.0049L136.643 -74.6694L136.856 -74.456L12.1818 50.2184Z" fill="#D6BB62"/>
<path d="M11.9684 50.005L11.7549 49.7915L136.429 -74.8828L136.643 -74.6693L11.9684 50.005Z" fill="#D7BC64"/>
<path d="M11.755 49.7911L11.5415 49.5776L136.216 -75.0967L136.429 -74.8832L11.755 49.7911Z" fill="#D9BE65"/>
<path d="M11.5416 49.7917L11.3281 49.5782L136.002 -75.3096L136.429 -75.0961L11.5416 49.7917Z" fill="#DABF67"/>
<path d="M11.5412 49.5782L11.1143 49.3647L136.002 -75.3096L136.216 -75.0961L11.5412 49.5782Z" fill="#DBC16A"/>
<path d="M11.3277 49.3644L11.1143 49.1509L135.789 -75.5234L136.002 -75.31L11.3277 49.3644Z" fill="#DCC36B"/>
<path d="M11.1149 49.151L10.9014 48.9375L135.576 -75.7368L135.789 -75.5233L11.1149 49.151Z" fill="#DDC46D"/>
<path d="M10.901 49.1511L10.6875 48.9376L135.575 -75.9502L135.789 -75.7367L10.901 49.1511Z" fill="#DFC66E"/>
<path d="M10.901 48.9376L10.6875 48.7241L135.362 -75.9502L135.575 -75.7367L10.901 48.9376Z" fill="#E0C871"/>
<path d="M10.6876 48.7237L10.4741 48.5102L135.148 -76.1641L135.362 -75.9506L10.6876 48.7237Z" fill="#E1C973"/>
<path d="M10.4742 48.7238L10.2607 48.2969L134.935 -76.3774L135.149 -76.164L10.4742 48.7238Z" fill="#E2CB74"/>
<path d="M10.2608 48.5104L10.0474 48.297L134.935 -76.5908L135.149 -76.1639L10.2608 48.5104Z" fill="#E4CC77"/>
<path d="M10.2608 48.297L10.0474 48.0835L134.722 -76.5908L134.935 -76.3773L10.2608 48.297Z" fill="#E6CF78"/>
<path d="M10.047 48.0836L9.8335 47.8701L134.508 -76.8042L134.721 -76.5907L10.047 48.0836Z" fill="#E6D07A"/>
<path d="M9.8336 48.0837L9.62012 47.8702L134.294 -77.0176L134.721 -76.8041L9.8336 48.0837Z" fill="#E7D17B"/>
<path d="M9.83371 47.8702L9.40674 47.6567L134.295 -77.0176L134.508 -76.8041L9.83371 47.8702Z" fill="#E9D47E"/>
<path d="M9.62022 47.6568L9.40674 47.4434L134.081 -77.231L134.295 -77.0175L9.62022 47.6568Z" fill="#EAD580"/>
<path d="M9.40684 47.443L9.19336 47.2295L133.868 -77.4448L134.081 -77.2313L9.40684 47.443Z" fill="#ECD782"/>
<path d="M9.19346 47.4431L8.97998 47.2296L133.654 -77.6582L134.081 -77.4447L9.19346 47.4431Z" fill="#ECD884"/>
<path d="M9.19308 47.2296L8.76611 47.0161L133.654 -77.6582L133.867 -77.4447L9.19308 47.2296Z" fill="#EDDA85"/>
<path d="M8.9796 47.0162L8.76611 46.8027L133.44 -77.8716L133.654 -77.6581L8.9796 47.0162Z" fill="#EFDD88"/>
<path d="M8.76622 46.8023L8.55273 46.5889L133.227 -78.0854L133.441 -77.872L8.76622 46.8023Z" fill="#F0DE8A"/>
<path d="M8.55284 46.8029L8.33936 46.5894L133.227 -78.2983L133.441 -78.0849L8.55284 46.8029Z" fill="#F2E08C"/>
<path d="M8.55284 46.5895L8.33936 46.376L133.014 -78.2983L133.227 -78.0849L8.55284 46.5895Z" fill="#F2E18E"/>
<path d="M8.33897 46.3756L8.12549 46.1621L132.8 -78.5122L133.013 -78.2987L8.33897 46.3756Z" fill="#F5E490"/>
<path d="M8.12608 46.3757L7.9126 45.9487L132.587 -78.7256L132.8 -78.5121L8.12608 46.3757Z" fill="#F5E592"/>
<path d="M7.91221 46.1623L7.69873 45.9488L132.587 -78.939L132.8 -78.512L7.91221 46.1623Z" fill="#F6E795"/>
<path d="M7.91221 45.9488L7.69873 45.7353L132.373 -78.939L132.587 -78.7255L7.91221 45.9488Z" fill="#F7E896"/>
<path d="M7.69883 45.7355L7.48535 45.522L132.16 -79.1523L132.373 -78.9389L7.69883 45.7355Z" fill="#F8E996"/>
<path d="M7.48546 45.7351L7.27197 45.3081L131.946 -79.3662L132.16 -79.1527L7.48546 45.7351Z" fill="#F7E895"/>
<path d="M7.48556 45.5216L7.05859 45.3081L131.946 -79.3662L132.16 -79.1527L7.48556 45.5216Z" fill="#F7E693"/>
<path d="M7.27208 45.3082L7.05859 45.0947L131.733 -79.5796L131.946 -79.3661L7.27208 45.3082Z" fill="#F5E491"/>
<path d="M7.05821 45.0948L6.84473 44.8813L131.519 -79.793L131.733 -79.5795L7.05821 45.0948Z" fill="#F5E390"/>
<path d="M6.84483 45.0944L6.63135 44.881L131.306 -80.0068L131.733 -79.7934L6.84483 45.0944Z" fill="#F4E18E"/>
<path d="M6.84494 44.881L6.41797 44.6675L131.306 -80.0068L131.519 -79.7934L6.84494 44.881Z" fill="#F3DF8D"/>
<path d="M6.63145 44.6681L6.41797 44.4546L131.092 -80.2197L131.306 -80.0062L6.63145 44.6681Z" fill="#F2DE8A"/>
<path d="M6.41758 44.4542L6.2041 44.2407L130.878 -80.4336L131.092 -80.2201L6.41758 44.4542Z" fill="#F1DD89"/>
<path d="M6.20469 44.4543L5.99121 44.2408L130.879 -80.647L131.092 -80.4335L6.20469 44.4543Z" fill="#F0DB88"/>
<path d="M6.20469 44.2408L5.99121 44.0273L130.666 -80.647L130.879 -80.4335L6.20469 44.2408Z" fill="#F0D985"/>
<path d="M5.99083 44.0274L5.77734 43.814L130.452 -80.8604L130.665 -80.6469L5.99083 44.0274Z" fill="#EFD884"/>
<path d="M5.77794 44.027L5.56445 43.6001L130.239 -81.0742L130.452 -80.8607L5.77794 44.027Z" fill="#EED683"/>
<path d="M5.56407 43.8142L5.35059 43.6007L130.238 -81.2871L130.452 -80.8601L5.56407 43.8142Z" fill="#EDD580"/>
<path d="M5.56407 43.6007L5.35059 43.3872L130.025 -81.2871L130.238 -81.0736L5.56407 43.6007Z" fill="#ECD37F"/>
<path d="M5.35069 43.3868L5.13721 43.1733L129.812 -81.501L130.025 -81.2875L5.35069 43.3868Z" fill="#EBD17D"/>
<path d="M5.13731 43.3869L4.92383 42.9599L129.598 -81.7144L129.812 -81.5009L5.13731 43.3869Z" fill="#EAD07B"/>
<path d="M5.13693 43.1735L4.70996 42.9601L129.598 -81.9277L129.811 -81.5008L5.13693 43.1735Z" fill="#EACE7A"/>
<path d="M4.92344 42.9601L4.70996 42.7466L129.384 -81.9277L129.598 -81.7143L4.92344 42.9601Z" fill="#E9CD79"/>
<path d="M4.71007 42.7467L4.49658 42.5332L129.171 -82.1411L129.384 -81.9276L4.71007 42.7467Z" fill="#E7CB76"/>
<path d="M4.49669 42.7463L4.2832 42.5328L128.958 -82.355L129.384 -82.1415L4.49669 42.7463Z" fill="#E7CA75"/>
<path d="M4.49679 42.5328L4.06982 42.3193L128.958 -82.355L129.171 -82.1415L4.49679 42.5328Z" fill="#E6C874"/>
<path d="M4.28331 42.3194L4.06982 42.1059L128.744 -82.5684L128.958 -82.3549L4.28331 42.3194Z" fill="#E5C671"/>
<path d="M4.06944 42.1061L3.85596 41.8926L128.53 -82.7817L128.744 -82.5683L4.06944 42.1061Z" fill="#E4C570"/>
<path d="M3.85606 42.1057L3.64258 41.8922L128.53 -82.9956L128.744 -82.7821L3.85606 42.1057Z" fill="#E3C36F"/>
<path d="M3.85606 41.8922L3.64258 41.6787L128.317 -82.9956L128.53 -82.7821L3.85606 41.8922Z" fill="#E3C26D"/>
<path d="M3.64268 41.6793L3.4292 41.4658L128.104 -83.2085L128.317 -82.995L3.64268 41.6793Z" fill="#E2C16C"/>
<path d="M3.42882 41.6789L3.21533 41.2519L127.89 -83.4224L128.103 -83.2089L3.42882 41.6789Z" fill="#E1BF6A"/>
<path d="M3.21592 41.4655L3.00244 41.252L127.89 -83.6357L128.104 -83.2088L3.21592 41.4655Z" fill="#E0BE69"/>
<path d="M3.21592 41.2521L3.00244 41.0386L127.677 -83.6357L127.89 -83.4223L3.21592 41.2521Z" fill="#DFBC67"/>
<path d="M3.00206 41.0387L2.78857 40.8252L127.463 -83.8491L127.676 -83.6356L3.00206 41.0387Z" fill="#DEBB66"/>
<path d="M2.78868 41.0388L2.5752 40.6118L127.25 -84.0625L127.463 -83.849L2.78868 41.0388Z" fill="#DDBA64"/>
<path d="M2.5753 40.8254L2.36182 40.6119L127.25 -84.2759L127.463 -83.8489L2.5753 40.8254Z" fill="#DCB862"/>
<path d="M2.5753 40.6119L2.36182 40.3984L127.036 -84.2759L127.25 -84.0624L2.5753 40.6119Z" fill="#DBB661"/>
<path d="M2.36192 40.398L2.14844 40.1846L126.823 -84.4897L127.036 -84.2763L2.36192 40.398Z" fill="#DBB560"/>
<path d="M2.14854 40.3981L1.93506 40.1847L126.609 -84.7031L127.036 -84.4896L2.14854 40.3981Z" fill="#DAB45E"/>
<path d="M2.14816 40.1847L1.72119 39.9712L126.609 -84.7031L126.822 -84.4896L2.14816 40.1847Z" fill="#D9B25D"/>
<path d="M1.93467 39.9713L1.72119 39.7578L126.396 -84.9165L126.609 -84.703L1.93467 39.9713Z" fill="#D8B15C"/>
<path d="M1.7213 39.7579L1.50781 39.5444L126.182 -85.1299L126.396 -84.9164L1.7213 39.7579Z" fill="#D7B05A"/>
<path d="M1.50792 39.7575L1.29443 39.544L126.182 -85.3438L126.396 -85.1303L1.50792 39.7575Z" fill="#D6AE58"/>
<path d="M1.50792 39.544L1.29443 39.3306L125.969 -85.3438L126.182 -85.1303L1.50792 39.544Z" fill="#D5AD57"/>
<path d="M1.29454 39.3307L1.08105 39.1172L125.755 -85.5571L125.969 -85.3436L1.29454 39.3307Z" fill="#D4AB55"/>
<path d="M1.08067 39.3308L0.867188 38.9038L125.541 -85.7705L125.755 -85.557L1.08067 39.3308Z" fill="#D4AA54"/>
<path d="M0.86778 39.1169L0.654297 38.9034L125.542 -85.9844L125.756 -85.5574L0.86778 39.1169Z" fill="#D3A953"/>
<path d="M0.86778 38.9034L0.654297 38.6899L125.329 -85.9844L125.542 -85.7709L0.86778 38.9034Z" fill="#D2A751"/>
<path d="M0.653913 38.6905L0.44043 38.477L125.115 -86.1973L125.328 -85.9838L0.653913 38.6905Z" fill="#D1A650"/>
<path d="M0.440046 38.6901L0.226562 38.2632L124.901 -86.4111L125.114 -86.1976L0.440046 38.6901Z" fill="#D0A44F"/>
<path d="M0.227155 38.4768L0.0136719 38.2633L124.901 -86.6245L125.115 -86.1975L0.227155 38.4768Z" fill="#CFA34E"/>
<path d="M0.227155 38.2633L0.0136719 38.0498L124.688 -86.6245L124.901 -86.411L0.227155 38.2633Z" fill="#CEA14C"/>
<path d="M0.0132881 38.0499L-0.200195 37.8364L124.474 -86.8379L124.688 -86.6244L0.0132881 38.0499Z" fill="#CDA04B"/>
<path d="M-0.200091 38.05L-0.413574 37.8365L124.261 -87.0513L124.688 -86.8378L-0.200091 38.05Z" fill="#CD9E4A"/>
<path d="M-0.199986 37.8365L-0.626953 37.623L124.261 -87.0513L124.474 -86.8378L-0.199986 37.8365Z" fill="#CC9D48"/>
<path d="M-0.41347 37.6227L-0.626953 37.4092L124.047 -87.2651L124.261 -87.0517L-0.41347 37.6227Z" fill="#CB9C47"/>
<path d="M-0.626849 37.4093L-0.840332 37.1958L123.834 -87.4785L124.047 -87.265L-0.626849 37.4093Z" fill="#CA9A46"/>
<path d="M-0.840716 37.4094L-1.0542 37.1959L123.834 -87.6919L124.047 -87.4784L-0.840716 37.4094Z" fill="#C99944"/>
<path d="M-0.840716 37.1959L-1.0542 36.9824L123.62 -87.6919L123.834 -87.4784L-0.840716 37.1959Z" fill="#C99843"/>
<path d="M-1.05409 36.9825L-1.26758 36.769L123.407 -87.9053L123.62 -87.6918L-1.05409 36.9825Z" fill="#C89642"/>
<path d="M-1.26747 36.7691L-1.48096 36.5557L123.193 -88.1187L123.407 -87.9052L-1.26747 36.7691Z" fill="#C79541"/>
<path d="M-1.48085 36.7687L-1.69434 36.5553L123.193 -88.3325L123.407 -87.9056L-1.48085 36.7687Z" fill="#C59340"/>
<path d="M-1.48085 36.5553L-1.69434 36.3418L122.98 -88.3325L123.193 -88.119L-1.48085 36.5553Z" fill="#C5923F"/>
<path d="M-1.69423 36.3424L-1.90771 36.1289L122.767 -88.5454L122.98 -88.3319L-1.69423 36.3424Z" fill="#C4903D"/>
<path d="M-1.9081 36.342L-2.12158 35.915L122.553 -88.7593L122.766 -88.5458L-1.9081 36.342Z" fill="#C48F3C"/>
<path d="M-2.12099 36.1281L-2.33447 35.9146L122.553 -88.9731L122.767 -88.5462L-2.12099 36.1281Z" fill="#C38E3B"/>
<path d="M-2.12099 35.9146L-2.33447 35.7012L122.34 -88.9731L122.553 -88.7597L-2.12099 35.9146Z" fill="#C18C3A"/>
<path d="M-2.33486 35.7018L-2.54834 35.4883L122.126 -89.186L122.339 -88.9726L-2.33486 35.7018Z" fill="#C18B39"/>
<path d="M-2.54824 35.7014L-2.76172 35.4879L121.913 -89.3999L122.34 -89.1864L-2.54824 35.7014Z" fill="#C08938"/>
<path d="M-2.54813 35.4879L-2.9751 35.2744L121.913 -89.3999L122.126 -89.1864L-2.54813 35.4879Z" fill="#BF8837"/>
<path d="M-2.76161 35.2745L-2.9751 35.061L121.699 -89.6133L121.913 -89.3998L-2.76161 35.2745Z" fill="#BE8735"/>
<path d="M-2.97548 35.0611L-3.18896 34.8476L121.485 -89.8267L121.699 -89.6132L-2.97548 35.0611Z" fill="#BE8535"/>
<path d="M-3.18886 35.0612L-3.40234 34.8477L121.272 -90.04L121.699 -89.8266L-3.18886 35.0612Z" fill="#BD8434"/>
<path d="M-3.18886 34.8478L-3.40234 34.6343L121.272 -90.04L121.485 -89.8266L-3.18886 34.8478Z" fill="#BC8232"/>
<path d="M-3.40224 34.6339L-3.61572 34.4204L121.059 -90.2539L121.272 -90.0404L-3.40224 34.6339Z" fill="#BB8132"/>
<path d="M-3.61562 34.4205L-3.8291 34.207L120.845 -90.4673L121.059 -90.2538L-3.61562 34.4205Z" fill="#BC8232"/>
<path d="M-3.82949 34.4206L-4.04297 34.2071L120.845 -90.6807L121.058 -90.2537L-3.82949 34.4206Z" fill="#BD8433"/>
<path d="M-3.82949 34.2071L-4.04297 33.9936L120.631 -90.6807L120.845 -90.4672L-3.82949 34.2071Z" fill="#BD8534"/>
<path d="M-4.04286 33.9933L-4.25635 33.7798L120.418 -90.8945L120.631 -90.681L-4.04286 33.9933Z" fill="#BE8635"/>
<path d="M-4.25624 33.9938L-4.46973 33.5669L120.205 -91.1074L120.418 -90.8939L-4.25624 33.9938Z" fill="#BF8736"/>
<path d="M-4.47011 33.78L-4.68359 33.5665L120.204 -91.3213L120.418 -90.8943L-4.47011 33.78Z" fill="#C08837"/>
<path d="M-4.47011 33.5665L-4.68359 33.353L119.991 -91.3213L120.204 -91.1078L-4.47011 33.5665Z" fill="#C08A38"/>
<path d="M-4.683 33.3536L-4.89648 33.1401L119.778 -91.5342L119.991 -91.3207L-4.683 33.3536Z" fill="#C18B39"/>
<path d="M-4.89687 33.3532L-5.11035 33.1397L119.564 -91.748L119.991 -91.5346L-4.89687 33.3532Z" fill="#C18C3A"/>
<path d="M-4.89628 33.1397L-5.32324 32.9263L119.565 -91.748L119.778 -91.5346L-4.89628 33.1397Z" fill="#C28D3B"/>
<path d="M-5.10976 32.9264L-5.32324 32.7129L119.351 -91.9614L119.565 -91.7479L-5.10976 32.9264Z" fill="#C48F3C"/>
<path d="M-5.32363 32.713L-5.53711 32.4995L119.137 -92.1748L119.351 -91.9613L-5.32363 32.713Z" fill="#C4903C"/>
<path d="M-5.537 32.7126L-5.75049 32.4991L118.924 -92.3887L119.351 -92.1752L-5.537 32.7126Z" fill="#C5913E"/>
<path d="M-5.5369 32.4991L-5.96387 32.2856L118.924 -92.3887L119.137 -92.1752L-5.5369 32.4991Z" fill="#C5923F"/>
<path d="M-5.75038 32.2857L-5.96387 32.0723L118.71 -92.6021L118.924 -92.3886L-5.75038 32.2857Z" fill="#C69440"/>
<path d="M-5.96425 32.0724L-6.17773 31.8589L118.497 -92.8154L118.71 -92.6019L-5.96425 32.0724Z" fill="#C69441"/>
<path d="M-6.17763 32.0725L-6.39111 31.859L118.497 -93.0288L118.71 -92.8153L-6.17763 32.0725Z" fill="#C89642"/>
<path d="M-6.17763 31.859L-6.39111 31.6455L118.283 -93.0288L118.497 -92.8153L-6.17763 31.859Z" fill="#C89743"/>
<path d="M-6.39101 31.6451L-6.60449 31.4316L118.07 -93.2427L118.283 -93.0292L-6.39101 31.6451Z" fill="#C99944"/>
<path d="M-6.60439 31.6452L-6.81787 31.2182L117.856 -93.4561L118.07 -93.2426L-6.60439 31.6452Z" fill="#C99945"/>
<path d="M-6.81825 31.4318L-7.03174 31.2184L117.856 -93.6694L118.07 -93.2425L-6.81825 31.4318Z" fill="#CA9B46"/>
<path d="M-6.81825 31.2184L-7.03174 31.0049L117.643 -93.6694L117.856 -93.456L-6.81825 31.2184Z" fill="#CB9C47"/>
<path d="M-7.03115 31.0045L-7.24463 30.791L117.43 -93.8833L117.643 -93.6698L-7.03115 31.0045Z" fill="#CC9E49"/>
<path d="M-7.24501 31.0051L-7.4585 30.7916L117.216 -94.0962L117.643 -93.8827L-7.24501 31.0051Z" fill="#CD9F4A"/>
<path d="M-7.24491 30.7916L-7.67188 30.5781L117.216 -94.0962L117.429 -93.8827L-7.24491 30.7916Z" fill="#CDA04A"/>
<path d="M-7.45839 30.5777L-7.67188 30.3643L117.002 -94.3101L117.216 -94.0966L-7.45839 30.5777Z" fill="#CEA14C"/>
<path d="M-7.67177 30.3648L-7.88525 30.1514L116.789 -94.5229L117.003 -94.3095L-7.67177 30.3648Z" fill="#CFA24D"/>
<path d="M-7.88564 30.3644L-8.09912 30.151L116.575 -94.7368L117.002 -94.5233L-7.88564 30.3644Z" fill="#D0A44E"/>
<path d="M-7.88553 30.151L-8.3125 29.9375L116.575 -94.7368L116.789 -94.5233L-7.88553 30.151Z" fill="#D0A44F"/>
<path d="M-8.09902 29.9376L-8.3125 29.7241L116.362 -94.9502L116.575 -94.7367L-8.09902 29.9376Z" fill="#D1A650"/>
<path d="M-8.3124 29.7242L-8.52588 29.5107L116.148 -95.1636L116.362 -94.9501L-8.3124 29.7242Z" fill="#D2A751"/>
<path d="M-8.52577 29.7238L-8.73926 29.5103L116.149 -95.3774L116.362 -95.164L-8.52577 29.7238Z" fill="#D3A953"/>
<path d="M-8.52577 29.5104L-8.73926 29.2969L115.935 -95.3774L116.149 -95.164L-8.52577 29.5104Z" fill="#D4AA54"/>
<path d="M-8.73915 29.297L-8.95264 29.0835L115.722 -95.5908L115.935 -95.3773L-8.73915 29.297Z" fill="#D4AB55"/>
<path d="M-8.95302 29.2971L-9.1665 28.8701L115.508 -95.8042L115.721 -95.5907L-8.95302 29.2971Z" fill="#D5AC56"/>
<path d="M-9.1664 29.0837L-9.37988 28.8702L115.508 -96.0176L115.721 -95.5906L-9.1664 29.0837Z" fill="#D6AD57"/>
<path d="M-9.1664 28.8702L-9.37988 28.6567L115.294 -96.0176L115.508 -95.8041L-9.1664 28.8702Z" fill="#D6AF58"/>
<path d="M-9.37978 28.6563L-9.59326 28.4429L115.081 -96.2314L115.295 -96.018L-9.37978 28.6563Z" fill="#D7AF59"/>
<path d="M-9.59316 28.6569L-9.80664 28.4435L114.868 -96.4443L115.295 -96.2309L-9.59316 28.6569Z" fill="#D8B15B"/>
<path d="M-9.59354 28.4435L-10.0205 28.23L114.867 -96.4443L115.081 -96.2309L-9.59354 28.4435Z" fill="#D9B35C"/>
<path d="M-9.80702 28.2296L-10.0205 28.0161L114.654 -96.6582L114.867 -96.4447L-9.80702 28.2296Z" fill="#DAB45D"/>
<path d="M-10.0199 28.0162L-10.2334 27.8027L114.441 -96.8716L114.654 -96.6581L-10.0199 28.0162Z" fill="#DAB45E"/>
<path d="M-10.2338 28.0163L-10.4473 27.8028L114.227 -97.085L114.654 -96.8715L-10.2338 28.0163Z" fill="#DBB65F"/>
<path d="M-10.2337 27.8028L-10.6606 27.5893L114.227 -97.085L114.441 -96.8715L-10.2337 27.8028Z" fill="#DBB761"/>
<path d="M-10.4472 27.589L-10.6606 27.3755L114.014 -97.2988L114.227 -97.0853L-10.4472 27.589Z" fill="#DDB962"/>
<path d="M-10.6605 27.3756L-10.874 27.1621L113.8 -97.5122L114.014 -97.2987L-10.6605 27.3756Z" fill="#DEBA63"/>
<path d="M-10.8744 27.3757L-11.0879 27.1622L113.8 -97.7256L114.013 -97.5121L-10.8744 27.3757Z" fill="#DEBB64"/>
<path d="M-10.8744 27.1622L-11.0879 26.9487L113.586 -97.7256L113.8 -97.5121L-10.8744 27.1622Z" fill="#DFBC66"/>
<path d="M-11.0878 26.9488L-11.3013 26.7353L113.373 -97.939L113.587 -97.7255L-11.0878 26.9488Z" fill="#DFBE67"/>
<path d="M-11.3012 26.9489L-11.5146 26.522L113.16 -98.1523L113.373 -97.9389L-11.3012 26.9489Z" fill="#E0BF69"/>
<path d="M-11.5145 26.7351L-11.728 26.5216L113.16 -98.3662L113.373 -97.9392L-11.5145 26.7351Z" fill="#E1C06A"/>
<path d="M-11.5145 26.5216L-11.728 26.3081L112.946 -98.3662L113.16 -98.1527L-11.5145 26.5216Z" fill="#E2C16B"/>
<path d="M-11.7284 26.3082L-11.9419 26.0947L112.732 -98.5796L112.946 -98.3661L-11.7284 26.3082Z" fill="#E3C36C"/>
<path d="M-11.9413 26.3083L-12.1548 25.8813L112.52 -98.793L112.733 -98.5795L-11.9413 26.3083Z" fill="#E3C46E"/>
<path d="M-11.9417 26.0948L-12.3687 25.8813L112.519 -98.793L112.733 -98.5795L-11.9417 26.0948Z" fill="#E4C56F"/>
<path d="M-12.1552 25.8814L-12.3687 25.668L112.306 -99.0063L112.519 -98.7929L-12.1552 25.8814Z" fill="#E4C671"/>
<path d="M-12.3685 25.6676L-12.582 25.4541L112.092 -99.2202L112.306 -99.0067L-12.3685 25.6676Z" fill="#E5C872"/>
<path d="M-12.5819 25.6682L-12.7954 25.4547L111.879 -99.4331L112.306 -99.2196L-12.5819 25.6682Z" fill="#E7C973"/>
<path d="M-12.5823 25.4547L-13.0093 25.2412L111.879 -99.4331L112.092 -99.2196L-12.5823 25.4547Z" fill="#E7CB75"/>
<path d="M-12.7958 25.2408L-13.0093 25.0273L111.665 -99.647L111.879 -99.4335L-12.7958 25.2408Z" fill="#E8CB76"/>
<path d="M-13.0087 25.0274L-13.2222 24.814L111.452 -99.8604L111.666 -99.6469L-13.0087 25.0274Z" fill="#E9CD77"/>
<path d="M-13.2226 25.0275L-13.436 24.8141L111.452 -100.074L111.665 -99.8602L-13.2226 25.0275Z" fill="#E9CF78"/>
<path d="M-13.2226 24.8141L-13.436 24.6006L111.238 -100.074L111.452 -99.8602L-13.2226 24.8141Z" fill="#EAD07A"/>
<path d="M-13.4359 24.6002L-13.6494 24.3867L111.025 -100.288L111.238 -100.074L-13.4359 24.6002Z" fill="#EAD17B"/>
<path d="M-13.6493 24.6003L-13.8628 24.1733L110.812 -100.501L111.025 -100.287L-13.6493 24.6003Z" fill="#ECD37D"/>
<path d="M-13.8632 24.3869L-14.0767 24.1734L110.811 -100.714L111.025 -100.287L-13.8632 24.3869Z" fill="#ECD47F"/>
<path d="M-13.8632 24.1734L-14.0767 23.96L110.598 -100.714L110.811 -100.501L-13.8632 24.1734Z" fill="#EDD580"/>
<path d="M-14.0766 23.9601L-14.29 23.7466L110.384 -100.928L110.598 -100.714L-14.0766 23.9601Z" fill="#EED781"/>
<path d="M-14.2899 23.9597L-14.5034 23.5327L110.171 -101.142L110.384 -100.928L-14.2899 23.9597Z" fill="#EED782"/>
<path d="M-14.5033 23.7468L-14.7168 23.5333L110.171 -101.354L110.384 -100.928L-14.5033 23.7468Z" fill="#EFD984"/>
<path d="M-14.5033 23.5333L-14.7168 23.3198L109.958 -101.354L110.171 -101.141L-14.5033 23.5333Z" fill="#F0DB85"/>
<path d="M-14.7172 23.3194L-14.9307 23.1059L109.744 -101.568L109.957 -101.355L-14.7172 23.3194Z" fill="#F1DC87"/>
<path d="M-14.9301 23.3195L-15.1436 23.106L109.531 -101.782L109.958 -101.568L-14.9301 23.3195Z" fill="#F1DD88"/>
<path d="M-14.9305 23.1061L-15.3574 22.8926L109.53 -101.782L109.744 -101.568L-14.9305 23.1061Z" fill="#F2DF8A"/>
<path d="M-15.1439 22.8927L-15.3574 22.6792L109.317 -101.995L109.53 -101.782L-15.1439 22.8927Z" fill="#F3E08B"/>
<path d="M-15.3573 22.6788L-15.5708 22.4653L109.104 -102.209L109.317 -101.996L-15.3573 22.6788Z" fill="#F4E28D"/>
<path d="M-15.5707 22.6794L-15.7842 22.4659L109.104 -102.422L109.317 -102.208L-15.5707 22.6794Z" fill="#F4E28E"/>
<path d="M-15.5707 22.4659L-15.7842 22.2524L108.89 -102.422L109.104 -102.208L-15.5707 22.4659Z" fill="#F5E48F"/>
<path d="M-15.7846 22.2521L-15.998 22.0386L108.676 -102.636L108.89 -102.422L-15.7846 22.2521Z" fill="#F6E691"/>
<path d="M-15.9975 22.2521L-16.2109 21.8252L108.463 -102.849L108.677 -102.636L-15.9975 22.2521Z" fill="#F7E792"/>
<path d="M-16.2113 22.0388L-16.4248 21.8253L108.463 -103.062L108.676 -102.636L-16.2113 22.0388Z" fill="#F8E994"/>
<path d="M-16.2113 21.8253L-16.4248 21.6118L108.25 -103.062L108.463 -102.849L-16.2113 21.8253Z" fill="#F7E893"/>
<path d="M-16.4247 21.6114L-16.6382 21.3979L108.036 -103.276L108.25 -103.063L-16.4247 21.6114Z" fill="#F5E590"/>
<path d="M-16.6381 21.6115L-16.8516 21.1846L107.823 -103.49L108.036 -103.276L-16.6381 21.6115Z" fill="#F3E28D"/>
<path d="M-16.8519 21.3981L-17.0654 21.1847L107.822 -103.703L108.036 -103.276L-16.8519 21.3981Z" fill="#F2DF8A"/>
<path d="M-16.8519 21.1847L-17.0654 20.9712L107.609 -103.703L107.822 -103.49L-16.8519 21.1847Z" fill="#F0DC87"/>
<path d="M-17.0653 20.9713L-17.2788 20.7578L107.396 -103.917L107.609 -103.703L-17.0653 20.9713Z" fill="#EED984"/>
<path d="M-17.2787 20.9709L-17.4922 20.7574L107.182 -104.13L107.609 -103.917L-17.2787 20.9709Z" fill="#ECD681"/>
<path d="M-17.2786 20.7574L-17.7056 20.5439L107.182 -104.13L107.396 -103.917L-17.2786 20.7574Z" fill="#EAD37E"/>
<path d="M-17.4921 20.5439H-17.7056L107.182 -104.13L-17.4921 20.5439Z" fill="#E9D07B"/>
</g>
</svg>
